<svg width="450" height="110" viewBox="0 0 450 110" fill="none" xmlns="http://www.w3.org/2000/svg">
<path d="M450 0H0V100H450V0Z" fill="black"/>
<path d="M61.0599 41.25H38.9399V43.9H61.0599V41.25Z" fill="white"/>
<path d="M61.0599 48.24H38.9399V50.89H61.0599V48.24Z" fill="white"/>
<path d="M61.0599 55.23H38.9399V57.88H61.0599V55.23Z" fill="white"/>
<path d="M406.24 53.4201C407.479 51.635 408.143 49.5132 408.14 47.3401C408.142 44.8815 407.304 42.496 405.764 40.5793C404.224 38.6626 402.076 37.3298 399.674 36.8019C397.273 36.2741 394.764 36.5829 392.562 37.6772C390.36 38.7715 388.599 40.5856 387.57 42.8184C386.541 45.0513 386.306 47.5688 386.904 49.9535C387.502 52.3383 388.898 54.4468 390.859 55.9296C392.82 57.4123 395.229 58.1801 397.687 58.1056C400.144 58.0311 402.502 57.1188 404.37 55.5201L411.37 62.5201L413.37 60.5201L406.24 53.4201ZM397.38 55.3101C395.798 55.3101 394.251 54.8409 392.936 53.9618C391.62 53.0828 390.595 51.8334 389.989 50.3715C389.384 48.9097 389.225 47.3012 389.534 45.7494C389.842 44.1975 390.604 42.772 391.723 41.6532C392.842 40.5344 394.268 39.7725 395.819 39.4638C397.371 39.1551 398.98 39.3135 400.442 39.919C401.903 40.5245 403.153 41.5499 404.032 42.8655C404.911 44.1811 405.38 45.7278 405.38 47.3101C405.38 49.4318 404.537 51.4666 403.037 52.9669C401.537 54.4672 399.502 55.3101 397.38 55.3101Z" fill="white"/>
<path d="M100.473 50.084H90.6494L89.4805 52.791C89.0977 53.6934 88.9062 54.4385 88.9062 55.0264C88.9062 55.8057 89.2207 56.3799 89.8496 56.749C90.2188 56.9678 91.1279 57.1318 92.5771 57.2412V58H83.3281V57.2412C84.3262 57.0908 85.1465 56.6807 85.7891 56.0107C86.4316 55.3271 87.2246 53.9258 88.168 51.8066L98.1143 29.6172H98.5039L108.532 52.4219C109.489 54.582 110.275 55.9424 110.891 56.5029C111.355 56.9268 112.012 57.1729 112.859 57.2412V58H99.4062V57.2412H99.96C101.04 57.2412 101.799 57.0908 102.236 56.79C102.537 56.5713 102.688 56.2568 102.688 55.8467C102.688 55.6006 102.646 55.3477 102.564 55.0879C102.537 54.9648 102.332 54.4521 101.949 53.5498L100.473 50.084ZM99.7754 48.5664L95.6328 38.9893L91.3672 48.5664H99.7754ZM122.724 38.8252V41.3477C123.776 40.1992 124.747 39.3994 125.636 38.9482C126.538 38.4834 127.522 38.251 128.589 38.251C129.819 38.251 130.852 38.5381 131.686 39.1123C132.52 39.6865 133.162 40.5615 133.613 41.7373C134.707 40.5068 135.753 39.6182 136.751 39.0713C137.763 38.5244 138.815 38.251 139.909 38.251C141.235 38.251 142.288 38.5586 143.067 39.1738C143.86 39.7754 144.407 40.5479 144.708 41.4912C145.022 42.4209 145.18 43.9111 145.18 45.9619V53.8164C145.18 55.293 145.31 56.209 145.569 56.5645C145.843 56.9199 146.403 57.1523 147.251 57.2617V58H137.346V57.2617C138.125 57.1934 138.699 56.8926 139.068 56.3594C139.314 55.9902 139.438 55.1426 139.438 53.8164V45.5723C139.438 43.8633 139.369 42.7764 139.232 42.3115C139.096 41.8467 138.877 41.5049 138.576 41.2861C138.289 41.0537 137.947 40.9375 137.551 40.9375C136.963 40.9375 136.368 41.1562 135.767 41.5938C135.165 42.0176 134.557 42.6602 133.941 43.5215V53.8164C133.941 55.1973 134.058 56.0654 134.29 56.4209C134.604 56.9268 135.206 57.207 136.095 57.2617V58H126.169V57.2617C126.702 57.2344 127.119 57.1045 127.42 56.8721C127.734 56.626 127.939 56.3389 128.035 56.0107C128.145 55.6689 128.199 54.9375 128.199 53.8164V45.5723C128.199 43.8359 128.131 42.749 127.994 42.3115C127.857 41.874 127.625 41.5322 127.297 41.2861C126.982 41.04 126.641 40.917 126.271 40.917C125.725 40.917 125.226 41.0605 124.774 41.3477C124.132 41.7715 123.448 42.4961 122.724 43.5215V53.8164C122.724 55.1699 122.854 56.0654 123.113 56.5029C123.387 56.9268 123.947 57.1797 124.795 57.2617V58H114.91V57.2617C115.717 57.1797 116.291 56.9199 116.633 56.4824C116.865 56.1816 116.981 55.293 116.981 53.8164V42.9883C116.981 41.5391 116.845 40.6367 116.571 40.2812C116.312 39.9258 115.758 39.6934 114.91 39.584V38.8252H122.724ZM165.995 47.7256H155.475C155.598 50.2686 156.274 52.2783 157.505 53.7549C158.448 54.8896 159.583 55.457 160.909 55.457C161.729 55.457 162.475 55.2314 163.145 54.7803C163.814 54.3154 164.532 53.4883 165.298 52.2988L165.995 52.75C164.956 54.8691 163.808 56.373 162.55 57.2617C161.292 58.1367 159.836 58.5742 158.182 58.5742C155.338 58.5742 153.185 57.4805 151.722 55.293C150.546 53.5293 149.958 51.3418 149.958 48.7305C149.958 45.5312 150.819 42.9883 152.542 41.1016C154.278 39.2012 156.309 38.251 158.633 38.251C160.574 38.251 162.256 39.0508 163.678 40.6504C165.113 42.2363 165.886 44.5947 165.995 47.7256ZM160.95 46.3516C160.95 44.1504 160.827 42.6396 160.581 41.8193C160.349 40.999 159.979 40.377 159.474 39.9531C159.187 39.707 158.804 39.584 158.325 39.584C157.614 39.584 157.033 39.9326 156.582 40.6299C155.775 41.8467 155.372 43.5146 155.372 45.6338V46.3516H160.95ZM163.965 29.248L157.177 36.3643H155.413L157.792 29.248H163.965ZM176.372 38.8252V43.1729C177.644 41.1904 178.758 39.8779 179.715 39.2354C180.672 38.5791 181.595 38.251 182.483 38.251C183.249 38.251 183.857 38.4902 184.309 38.9688C184.773 39.4336 185.006 40.0967 185.006 40.958C185.006 41.874 184.78 42.585 184.329 43.0908C183.892 43.5967 183.358 43.8496 182.729 43.8496C182.005 43.8496 181.376 43.6172 180.843 43.1523C180.31 42.6875 179.995 42.4277 179.899 42.373C179.763 42.291 179.605 42.25 179.428 42.25C179.031 42.25 178.655 42.4004 178.3 42.7012C177.739 43.166 177.315 43.8291 177.028 44.6904C176.591 46.0166 176.372 47.4795 176.372 49.0791V53.4883L176.393 54.6367C176.393 55.416 176.44 55.915 176.536 56.1338C176.7 56.5029 176.939 56.7764 177.254 56.9541C177.582 57.1182 178.129 57.2207 178.895 57.2617V58H168.538V57.2617C169.372 57.1934 169.933 56.9678 170.22 56.585C170.521 56.1885 170.671 55.1562 170.671 53.4883V42.8857C170.671 41.792 170.616 41.0947 170.507 40.7939C170.37 40.4111 170.172 40.1309 169.912 39.9531C169.652 39.7754 169.194 39.6523 168.538 39.584V38.8252H176.372ZM191.691 29.5352C192.58 29.5352 193.332 29.8496 193.947 30.4785C194.562 31.0938 194.87 31.8389 194.87 32.7139C194.87 33.5889 194.556 34.334 193.927 34.9492C193.312 35.5645 192.566 35.8721 191.691 35.8721C190.816 35.8721 190.071 35.5645 189.456 34.9492C188.841 34.334 188.533 33.5889 188.533 32.7139C188.533 31.8389 188.841 31.0938 189.456 30.4785C190.071 29.8496 190.816 29.5352 191.691 29.5352ZM194.562 38.8252V54.0215C194.562 55.375 194.72 56.2432 195.034 56.626C195.349 56.9951 195.964 57.207 196.88 57.2617V58H186.523V57.2617C187.371 57.2344 188 56.9883 188.41 56.5234C188.684 56.209 188.82 55.375 188.82 54.0215V42.8242C188.82 41.4707 188.663 40.6094 188.349 40.2402C188.034 39.8574 187.426 39.6387 186.523 39.584V38.8252H194.562ZM214.414 53.0576L215.05 53.5498C214.147 55.2451 213.02 56.5098 211.666 57.3438C210.326 58.1641 208.897 58.5742 207.38 58.5742C204.823 58.5742 202.779 57.6104 201.248 55.6826C199.717 53.7549 198.951 51.4375 198.951 48.7305C198.951 46.1191 199.648 43.8223 201.043 41.8398C202.725 39.4473 205.042 38.251 207.995 38.251C209.978 38.251 211.55 38.75 212.712 39.748C213.888 40.7461 214.476 41.8604 214.476 43.0908C214.476 43.8701 214.236 44.4922 213.758 44.957C213.293 45.4219 212.678 45.6543 211.912 45.6543C211.105 45.6543 210.436 45.3877 209.902 44.8545C209.383 44.3213 209.062 43.3711 208.938 42.0039C208.856 41.1426 208.658 40.541 208.344 40.1992C208.029 39.8574 207.66 39.6865 207.236 39.6865C206.58 39.6865 206.02 40.0352 205.555 40.7324C204.844 41.7852 204.488 43.3984 204.488 45.5723C204.488 47.377 204.775 49.1064 205.35 50.7607C205.924 52.4014 206.71 53.625 207.708 54.4316C208.46 55.0195 209.349 55.3135 210.374 55.3135C211.044 55.3135 211.68 55.1562 212.281 54.8418C212.883 54.5273 213.594 53.9326 214.414 53.0576ZM228.011 55.1699C225.673 57.2344 223.574 58.2666 221.715 58.2666C220.621 58.2666 219.712 57.9111 218.987 57.2002C218.263 56.4756 217.9 55.5732 217.9 54.4932C217.9 53.0303 218.529 51.7178 219.787 50.5557C221.045 49.3799 223.786 47.8213 228.011 45.8799V43.9521C228.011 42.5029 227.929 41.5938 227.765 41.2246C227.614 40.8418 227.32 40.5137 226.883 40.2402C226.445 39.9531 225.953 39.8096 225.406 39.8096C224.518 39.8096 223.786 40.0078 223.212 40.4043C222.856 40.6504 222.679 40.9375 222.679 41.2656C222.679 41.5527 222.87 41.9082 223.253 42.332C223.772 42.9199 224.032 43.4873 224.032 44.0342C224.032 44.7041 223.779 45.2783 223.273 45.7568C222.781 46.2217 222.132 46.4541 221.325 46.4541C220.464 46.4541 219.739 46.1943 219.151 45.6748C218.577 45.1553 218.29 44.5469 218.29 43.8496C218.29 42.8652 218.68 41.9287 219.459 41.04C220.238 40.1377 221.325 39.4473 222.72 38.9688C224.114 38.4902 225.563 38.251 227.067 38.251C228.886 38.251 230.321 38.6406 231.374 39.4199C232.44 40.1855 233.131 41.0195 233.445 41.9219C233.637 42.4961 233.732 43.8154 233.732 45.8799V53.3242C233.732 54.1992 233.767 54.7529 233.835 54.9854C233.903 55.2041 234.006 55.3682 234.143 55.4775C234.279 55.5869 234.437 55.6416 234.614 55.6416C234.97 55.6416 235.332 55.3887 235.701 54.8828L236.316 55.375C235.633 56.3867 234.922 57.125 234.184 57.5898C233.459 58.041 232.632 58.2666 231.702 58.2666C230.608 58.2666 229.754 58.0137 229.139 57.5078C228.523 56.9883 228.147 56.209 228.011 55.1699ZM228.011 53.6729V47.2539C226.356 48.2246 225.126 49.2637 224.319 50.3711C223.786 51.1094 223.52 51.8545 223.52 52.6064C223.52 53.2354 223.745 53.7891 224.196 54.2676C224.538 54.6367 225.017 54.8213 225.632 54.8213C226.315 54.8213 227.108 54.4385 228.011 53.6729ZM274.03 48.2383L272.984 58H248.293V57.2412H249.216C250.022 57.2412 250.672 57.0977 251.164 56.8105C251.52 56.6191 251.793 56.291 251.984 55.8262C252.135 55.498 252.21 54.6367 252.21 53.2422V34.9492C252.21 33.5273 252.135 32.6387 251.984 32.2832C251.834 31.9277 251.526 31.6201 251.062 31.3604C250.61 31.0869 249.995 30.9502 249.216 30.9502H248.293V30.1914H263.12V30.9502H261.91C261.104 30.9502 260.454 31.0938 259.962 31.3809C259.606 31.5723 259.326 31.9004 259.121 32.3652C258.971 32.6934 258.896 33.5547 258.896 34.9492V52.668C258.896 54.0898 258.978 54.999 259.142 55.3955C259.306 55.7783 259.627 56.0654 260.105 56.2568C260.447 56.3799 261.274 56.4414 262.587 56.4414H264.904C266.381 56.4414 267.611 56.1816 268.596 55.6621C269.58 55.1426 270.428 54.3223 271.139 53.2012C271.863 52.0801 272.547 50.4258 273.189 48.2383H274.03ZM287.524 55.1699C285.187 57.2344 283.088 58.2666 281.229 58.2666C280.135 58.2666 279.226 57.9111 278.501 57.2002C277.776 56.4756 277.414 55.5732 277.414 54.4932C277.414 53.0303 278.043 51.7178 279.301 50.5557C280.559 49.3799 283.3 47.8213 287.524 45.8799V43.9521C287.524 42.5029 287.442 41.5938 287.278 41.2246C287.128 40.8418 286.834 40.5137 286.396 40.2402C285.959 39.9531 285.467 39.8096 284.92 39.8096C284.031 39.8096 283.3 40.0078 282.726 40.4043C282.37 40.6504 282.192 40.9375 282.192 41.2656C282.192 41.5527 282.384 41.9082 282.767 42.332C283.286 42.9199 283.546 43.4873 283.546 44.0342C283.546 44.7041 283.293 45.2783 282.787 45.7568C282.295 46.2217 281.646 46.4541 280.839 46.4541C279.978 46.4541 279.253 46.1943 278.665 45.6748C278.091 45.1553 277.804 44.5469 277.804 43.8496C277.804 42.8652 278.193 41.9287 278.973 41.04C279.752 40.1377 280.839 39.4473 282.233 38.9688C283.628 38.4902 285.077 38.251 286.581 38.251C288.399 38.251 289.835 38.6406 290.888 39.4199C291.954 40.1855 292.645 41.0195 292.959 41.9219C293.15 42.4961 293.246 43.8154 293.246 45.8799V53.3242C293.246 54.1992 293.28 54.7529 293.349 54.9854C293.417 55.2041 293.52 55.3682 293.656 55.4775C293.793 55.5869 293.95 55.6416 294.128 55.6416C294.483 55.6416 294.846 55.3887 295.215 54.8828L295.83 55.375C295.146 56.3867 294.436 57.125 293.697 57.5898C292.973 58.041 292.146 58.2666 291.216 58.2666C290.122 58.2666 289.268 58.0137 288.652 57.5078C288.037 56.9883 287.661 56.209 287.524 55.1699ZM287.524 53.6729V47.2539C285.87 48.2246 284.64 49.2637 283.833 50.3711C283.3 51.1094 283.033 51.8545 283.033 52.6064C283.033 53.2354 283.259 53.7891 283.71 54.2676C284.052 54.6367 284.53 54.8213 285.146 54.8213C285.829 54.8213 286.622 54.4385 287.524 53.6729ZM305.551 31.8115V38.8252H310.104V40.8555H305.551V52.6885C305.551 53.7959 305.599 54.5137 305.694 54.8418C305.804 55.1562 305.988 55.416 306.248 55.6211C306.508 55.8125 306.747 55.9082 306.966 55.9082C307.854 55.9082 308.695 55.2314 309.488 53.8779L310.104 54.3291C308.996 56.9541 307.198 58.2666 304.71 58.2666C303.493 58.2666 302.461 57.9316 301.613 57.2617C300.779 56.5781 300.246 55.8193 300.014 54.9854C299.877 54.5205 299.809 53.2627 299.809 51.2119V40.8555H297.307V40.1377C299.029 38.9209 300.492 37.6426 301.695 36.3027C302.912 34.9629 303.972 33.4658 304.874 31.8115H305.551ZM316.543 29.5352C317.432 29.5352 318.184 29.8496 318.799 30.4785C319.414 31.0938 319.722 31.8389 319.722 32.7139C319.722 33.5889 319.407 34.334 318.778 34.9492C318.163 35.5645 317.418 35.8721 316.543 35.8721C315.668 35.8721 314.923 35.5645 314.308 34.9492C313.692 34.334 313.385 33.5889 313.385 32.7139C313.385 31.8389 313.692 31.0938 314.308 30.4785C314.923 29.8496 315.668 29.5352 316.543 29.5352ZM319.414 38.8252V54.0215C319.414 55.375 319.571 56.2432 319.886 56.626C320.2 56.9951 320.815 57.207 321.731 57.2617V58H311.375V57.2617C312.223 57.2344 312.852 56.9883 313.262 56.5234C313.535 56.209 313.672 55.375 313.672 54.0215V42.8242C313.672 41.4707 313.515 40.6094 313.2 40.2402C312.886 39.8574 312.277 39.6387 311.375 39.584V38.8252H319.414ZM331.452 38.8252V41.3066C332.437 40.2402 333.38 39.4678 334.282 38.9893C335.185 38.4971 336.155 38.251 337.194 38.251C338.438 38.251 339.471 38.5996 340.291 39.2969C341.111 39.9805 341.658 40.835 341.932 41.8604C342.15 42.6396 342.26 44.1367 342.26 46.3516V53.8164C342.26 55.293 342.39 56.2158 342.649 56.585C342.923 56.9404 343.483 57.166 344.331 57.2617V58H334.631V57.2617C335.355 57.166 335.875 56.8652 336.189 56.3594C336.408 56.0176 336.518 55.1699 336.518 53.8164V45.2852C336.518 43.7129 336.456 42.7217 336.333 42.3115C336.21 41.9014 335.998 41.5869 335.697 41.3682C335.41 41.1357 335.089 41.0195 334.733 41.0195C333.558 41.0195 332.464 41.8604 331.452 43.542V53.8164C331.452 55.252 331.582 56.1611 331.842 56.5439C332.115 56.9268 332.614 57.166 333.339 57.2617V58H323.639V57.2617C324.445 57.1797 325.02 56.9199 325.361 56.4824C325.594 56.1816 325.71 55.293 325.71 53.8164V42.9883C325.71 41.5391 325.573 40.6367 325.3 40.2812C325.04 39.9258 324.486 39.6934 323.639 39.584V38.8252H331.452ZM357.579 55.1699C355.241 57.2344 353.143 58.2666 351.283 58.2666C350.189 58.2666 349.28 57.9111 348.556 57.2002C347.831 56.4756 347.469 55.5732 347.469 54.4932C347.469 53.0303 348.098 51.7178 349.355 50.5557C350.613 49.3799 353.354 47.8213 357.579 45.8799V43.9521C357.579 42.5029 357.497 41.5938 357.333 41.2246C357.183 40.8418 356.889 40.5137 356.451 40.2402C356.014 39.9531 355.521 39.8096 354.975 39.8096C354.086 39.8096 353.354 40.0078 352.78 40.4043C352.425 40.6504 352.247 40.9375 352.247 41.2656C352.247 41.5527 352.438 41.9082 352.821 42.332C353.341 42.9199 353.601 43.4873 353.601 44.0342C353.601 44.7041 353.348 45.2783 352.842 45.7568C352.35 46.2217 351.7 46.4541 350.894 46.4541C350.032 46.4541 349.308 46.1943 348.72 45.6748C348.146 45.1553 347.858 44.5469 347.858 43.8496C347.858 42.8652 348.248 41.9287 349.027 41.04C349.807 40.1377 350.894 39.4473 352.288 38.9688C353.683 38.4902 355.132 38.251 356.636 38.251C358.454 38.251 359.89 38.6406 360.942 39.4199C362.009 40.1855 362.699 41.0195 363.014 41.9219C363.205 42.4961 363.301 43.8154 363.301 45.8799V53.3242C363.301 54.1992 363.335 54.7529 363.403 54.9854C363.472 55.2041 363.574 55.3682 363.711 55.4775C363.848 55.5869 364.005 55.6416 364.183 55.6416C364.538 55.6416 364.9 55.3887 365.27 54.8828L365.885 55.375C365.201 56.3867 364.49 57.125 363.752 57.5898C363.027 58.041 362.2 58.2666 361.271 58.2666C360.177 58.2666 359.322 58.0137 358.707 57.5078C358.092 56.9883 357.716 56.209 357.579 55.1699ZM357.579 53.6729V47.2539C355.925 48.2246 354.694 49.2637 353.888 50.3711C353.354 51.1094 353.088 51.8545 353.088 52.6064C353.088 53.2354 353.313 53.7891 353.765 54.2676C354.106 54.6367 354.585 54.8213 355.2 54.8213C355.884 54.8213 356.677 54.4385 357.579 53.6729Z" fill="white"/>
<rect width="154" height="28" transform="translate(148 82)" fill="#FF0000"/>
<path d="M170.059 101H168.645L163.276 92.7822V101H161.863V90.3359H163.276L168.66 98.5903V90.3359H170.059V101ZM171.985 96.9644C171.985 96.188 172.136 95.4897 172.439 94.8696C172.747 94.2495 173.171 93.771 173.713 93.4341C174.26 93.0972 174.883 92.9287 175.581 92.9287C176.66 92.9287 177.532 93.3022 178.196 94.0493C178.865 94.7964 179.199 95.79 179.199 97.0303V97.1255C179.199 97.897 179.05 98.5903 178.752 99.2056C178.459 99.8159 178.037 100.292 177.485 100.634C176.938 100.976 176.309 101.146 175.596 101.146C174.521 101.146 173.65 100.773 172.981 100.026C172.317 99.2788 171.985 98.29 171.985 97.0596V96.9644ZM173.347 97.1255C173.347 98.0044 173.55 98.71 173.955 99.2422C174.365 99.7744 174.912 100.041 175.596 100.041C176.284 100.041 176.831 99.772 177.236 99.2349C177.642 98.6929 177.844 97.936 177.844 96.9644C177.844 96.0952 177.637 95.3921 177.222 94.855C176.812 94.313 176.265 94.042 175.581 94.042C174.912 94.042 174.373 94.3081 173.962 94.8403C173.552 95.3726 173.347 96.1343 173.347 97.1255ZM182.737 91.1562V93.0752H184.216V94.1226H182.737V99.0371C182.737 99.3545 182.803 99.5938 182.935 99.7549C183.066 99.9111 183.291 99.9893 183.608 99.9893C183.765 99.9893 183.979 99.96 184.253 99.9014V101C183.896 101.098 183.55 101.146 183.213 101.146C182.607 101.146 182.151 100.963 181.843 100.597C181.536 100.231 181.382 99.7109 181.382 99.0371V94.1226H179.939V93.0752H181.382V91.1562H182.737ZM187.278 101H185.923V93.0752H187.278V101ZM185.813 90.9731C185.813 90.7534 185.879 90.5679 186.011 90.4165C186.147 90.2651 186.348 90.1895 186.611 90.1895C186.875 90.1895 187.075 90.2651 187.212 90.4165C187.349 90.5679 187.417 90.7534 187.417 90.9731C187.417 91.1929 187.349 91.376 187.212 91.5225C187.075 91.6689 186.875 91.7422 186.611 91.7422C186.348 91.7422 186.147 91.6689 186.011 91.5225C185.879 91.376 185.813 91.1929 185.813 90.9731ZM192.632 100.041C193.115 100.041 193.538 99.894 193.899 99.6011C194.26 99.3081 194.46 98.9419 194.5 98.5024H195.781C195.757 98.9565 195.601 99.3887 195.312 99.7988C195.024 100.209 194.639 100.536 194.155 100.78C193.677 101.024 193.169 101.146 192.632 101.146C191.553 101.146 190.693 100.788 190.054 100.07C189.419 99.3472 189.102 98.3608 189.102 97.1108V96.8838C189.102 96.1123 189.243 95.4263 189.526 94.8257C189.81 94.2251 190.215 93.7588 190.742 93.4268C191.274 93.0947 191.902 92.9287 192.625 92.9287C193.513 92.9287 194.25 93.1948 194.836 93.7271C195.427 94.2593 195.742 94.9502 195.781 95.7998H194.5C194.46 95.2871 194.265 94.8672 193.914 94.54C193.567 94.208 193.137 94.042 192.625 94.042C191.936 94.042 191.401 94.291 191.021 94.7891C190.645 95.2822 190.457 95.9976 190.457 96.9351V97.1914C190.457 98.1045 190.645 98.8076 191.021 99.3008C191.396 99.7939 191.934 100.041 192.632 100.041ZM198.777 101H197.422V93.0752H198.777V101ZM197.312 90.9731C197.312 90.7534 197.378 90.5679 197.51 90.4165C197.646 90.2651 197.847 90.1895 198.11 90.1895C198.374 90.1895 198.574 90.2651 198.711 90.4165C198.848 90.5679 198.916 90.7534 198.916 90.9731C198.916 91.1929 198.848 91.376 198.711 91.5225C198.574 91.6689 198.374 91.7422 198.11 91.7422C197.847 91.7422 197.646 91.6689 197.51 91.5225C197.378 91.376 197.312 91.1929 197.312 90.9731ZM205.845 101C205.767 100.844 205.703 100.565 205.654 100.165C205.024 100.819 204.272 101.146 203.398 101.146C202.617 101.146 201.975 100.927 201.472 100.487C200.974 100.043 200.725 99.4814 200.725 98.8027C200.725 97.9775 201.038 97.3379 201.663 96.8838C202.292 96.4248 203.176 96.1953 204.314 96.1953H205.632V95.5728C205.632 95.0991 205.491 94.7231 205.208 94.4448C204.924 94.1616 204.507 94.02 203.955 94.02C203.472 94.02 203.066 94.1421 202.739 94.3862C202.412 94.6304 202.249 94.9258 202.249 95.2725H200.886C200.886 94.877 201.025 94.4961 201.304 94.1299C201.587 93.7588 201.968 93.4658 202.446 93.251C202.93 93.0361 203.459 92.9287 204.036 92.9287C204.949 92.9287 205.664 93.1582 206.182 93.6172C206.699 94.0713 206.968 94.6987 206.987 95.4995V99.147C206.987 99.8745 207.08 100.453 207.266 100.883V101H205.845ZM203.596 99.9673C204.021 99.9673 204.424 99.8574 204.805 99.6377C205.186 99.418 205.461 99.1323 205.632 98.7808V97.1548H204.57C202.91 97.1548 202.08 97.6406 202.08 98.6123C202.08 99.0371 202.222 99.3691 202.505 99.6084C202.788 99.8477 203.152 99.9673 203.596 99.9673ZM213.726 98.8979C213.726 98.5317 213.586 98.2485 213.308 98.0483C213.035 97.8433 212.554 97.6675 211.865 97.521C211.182 97.3745 210.637 97.1987 210.232 96.9937C209.832 96.7886 209.534 96.5444 209.338 96.2612C209.148 95.978 209.053 95.6411 209.053 95.2505C209.053 94.6011 209.326 94.0518 209.873 93.6025C210.425 93.1533 211.128 92.9287 211.982 92.9287C212.881 92.9287 213.608 93.1606 214.165 93.6245C214.727 94.0884 215.007 94.6816 215.007 95.4043H213.645C213.645 95.0332 213.486 94.7134 213.169 94.4448C212.856 94.1763 212.461 94.042 211.982 94.042C211.489 94.042 211.104 94.1494 210.825 94.3643C210.547 94.5791 210.408 94.8599 210.408 95.2065C210.408 95.5337 210.537 95.7803 210.796 95.9463C211.055 96.1123 211.521 96.271 212.195 96.4224C212.874 96.5737 213.423 96.7544 213.843 96.9644C214.263 97.1743 214.573 97.4282 214.773 97.7261C214.978 98.019 215.081 98.3779 215.081 98.8027C215.081 99.5107 214.797 100.08 214.231 100.509C213.665 100.934 212.93 101.146 212.026 101.146C211.392 101.146 210.83 101.034 210.342 100.81C209.854 100.585 209.47 100.272 209.192 99.8721C208.918 99.4668 208.782 99.0298 208.782 98.561H210.137C210.161 99.0151 210.342 99.3765 210.679 99.645C211.021 99.9087 211.47 100.041 212.026 100.041C212.539 100.041 212.949 99.938 213.257 99.7329C213.569 99.5229 213.726 99.2446 213.726 98.8979ZM220.237 96.9717C220.237 95.7559 220.525 94.7793 221.101 94.042C221.677 93.2998 222.432 92.9287 223.364 92.9287C224.292 92.9287 225.027 93.2461 225.569 93.8809V89.75H226.924V101H225.679L225.613 100.15C225.071 100.814 224.316 101.146 223.35 101.146C222.432 101.146 221.682 100.771 221.101 100.019C220.525 99.2666 220.237 98.2852 220.237 97.0742V96.9717ZM221.592 97.1255C221.592 98.0239 221.777 98.7271 222.148 99.2349C222.52 99.7427 223.032 99.9966 223.687 99.9966C224.546 99.9966 225.173 99.6108 225.569 98.8394V95.1992C225.164 94.4521 224.541 94.0786 223.701 94.0786C223.037 94.0786 222.52 94.335 222.148 94.8477C221.777 95.3604 221.592 96.1196 221.592 97.1255ZM232.322 101.146C231.248 101.146 230.374 100.795 229.7 100.092C229.026 99.3838 228.689 98.439 228.689 97.2573V97.0083C228.689 96.2222 228.838 95.5215 229.136 94.9062C229.438 94.2861 229.858 93.8027 230.396 93.4561C230.938 93.1045 231.523 92.9287 232.153 92.9287C233.184 92.9287 233.984 93.2681 234.556 93.9468C235.127 94.6255 235.413 95.5972 235.413 96.8618V97.4258H230.044C230.063 98.207 230.291 98.8394 230.725 99.3228C231.165 99.8013 231.721 100.041 232.395 100.041C232.874 100.041 233.279 99.9429 233.611 99.7476C233.943 99.5522 234.233 99.2935 234.482 98.9712L235.31 99.6157C234.646 100.636 233.65 101.146 232.322 101.146ZM232.153 94.042C231.606 94.042 231.147 94.2422 230.776 94.6426C230.405 95.0381 230.176 95.5947 230.088 96.3125H234.058V96.21C234.019 95.5215 233.833 94.9893 233.501 94.6133C233.169 94.2324 232.72 94.042 232.153 94.042ZM238.459 101H237.104V89.75H238.459V101ZM246.384 90.3359L249.871 99.0371L253.357 90.3359H255.181V101H253.774V96.8472L253.906 92.3647L250.405 101H249.329L245.835 92.3867L245.974 96.8472V101H244.568V90.3359H246.384ZM262.344 100.216C261.816 100.836 261.042 101.146 260.022 101.146C259.177 101.146 258.533 100.902 258.088 100.414C257.649 99.9209 257.427 99.1934 257.422 98.2314V93.0752H258.777V98.1948C258.777 99.396 259.265 99.9966 260.242 99.9966C261.277 99.9966 261.965 99.6108 262.307 98.8394V93.0752H263.662V101H262.373L262.344 100.216ZM267.009 93.0752L267.053 94.0713C267.659 93.3096 268.45 92.9287 269.426 92.9287C271.101 92.9287 271.946 93.8735 271.96 95.7632V101H270.605V95.7559C270.601 95.1846 270.469 94.7622 270.21 94.4888C269.956 94.2153 269.558 94.0786 269.016 94.0786C268.577 94.0786 268.191 94.1958 267.859 94.4302C267.527 94.6646 267.268 94.9722 267.083 95.353V101H265.728V93.0752H267.009ZM273.674 96.9717C273.674 95.7559 273.962 94.7793 274.539 94.042C275.115 93.2998 275.869 92.9287 276.802 92.9287C277.729 92.9287 278.464 93.2461 279.006 93.8809V89.75H280.361V101H279.116L279.05 100.15C278.508 100.814 277.754 101.146 276.787 101.146C275.869 101.146 275.12 100.771 274.539 100.019C273.962 99.2666 273.674 98.2852 273.674 97.0742V96.9717ZM275.029 97.1255C275.029 98.0239 275.215 98.7271 275.586 99.2349C275.957 99.7427 276.47 99.9966 277.124 99.9966C277.983 99.9966 278.611 99.6108 279.006 98.8394V95.1992C278.601 94.4521 277.979 94.0786 277.139 94.0786C276.475 94.0786 275.957 94.335 275.586 94.8477C275.215 95.3604 275.029 96.1196 275.029 97.1255ZM282.112 96.9644C282.112 96.188 282.263 95.4897 282.566 94.8696C282.874 94.2495 283.298 93.771 283.84 93.4341C284.387 93.0972 285.01 92.9287 285.708 92.9287C286.787 92.9287 287.659 93.3022 288.323 94.0493C288.992 94.7964 289.326 95.79 289.326 97.0303V97.1255C289.326 97.897 289.177 98.5903 288.879 99.2056C288.586 99.8159 288.164 100.292 287.612 100.634C287.065 100.976 286.436 101.146 285.723 101.146C284.648 101.146 283.777 100.773 283.108 100.026C282.444 99.2788 282.112 98.29 282.112 97.0596V96.9644ZM283.474 97.1255C283.474 98.0044 283.677 98.71 284.082 99.2422C284.492 99.7744 285.039 100.041 285.723 100.041C286.411 100.041 286.958 99.772 287.363 99.2349C287.769 98.6929 287.971 97.936 287.971 96.9644C287.971 96.0952 287.764 95.3921 287.349 94.855C286.938 94.313 286.392 94.042 285.708 94.042C285.039 94.042 284.5 94.3081 284.089 94.8403C283.679 95.3726 283.474 96.1343 283.474 97.1255Z" fill="white"/>
</svg>
