<svg width="1440" height="114" viewBox="0 0 1440 114" fill="none" xmlns="http://www.w3.org/2000/svg">
<path d="M1440 0H0V100H1440V0Z" fill="black"/>
<path d="M211.06 41.6797H188.94V44.3297H211.06V41.6797Z" fill="white"/>
<path d="M211.06 48.6797H188.94V51.3297H211.06V48.6797Z" fill="white"/>
<path d="M211.06 55.6699H188.94V58.3199H211.06V55.6699Z" fill="white"/>
<path d="M1246.24 53.4198C1247.48 51.6347 1248.14 49.513 1248.14 47.3398C1248.14 44.8812 1247.3 42.4958 1245.76 40.579C1244.22 38.6623 1242.08 37.3295 1239.67 36.8017C1237.27 36.2738 1234.76 36.5827 1232.56 37.677C1230.36 38.7713 1228.6 40.5853 1227.57 42.8182C1226.54 45.051 1226.31 47.5686 1226.9 49.9533C1227.5 52.338 1228.9 54.4466 1230.86 55.9293C1232.82 57.412 1235.23 58.1798 1237.69 58.1054C1240.14 58.0309 1242.5 57.1186 1244.37 55.5198L1251.37 62.5198L1253.37 60.5198L1246.24 53.4198ZM1237.38 55.3098C1235.8 55.3098 1234.25 54.8406 1232.94 53.9616C1231.62 53.0825 1230.59 51.8331 1229.99 50.3713C1229.38 48.9095 1229.22 47.301 1229.53 45.7491C1229.84 44.1973 1230.6 42.7718 1231.72 41.653C1232.84 40.5342 1234.27 39.7722 1235.82 39.4636C1237.37 39.1549 1238.98 39.3133 1240.44 39.9188C1241.9 40.5243 1243.15 41.5497 1244.03 42.8653C1244.91 44.1809 1245.38 45.7276 1245.38 47.3098C1245.38 49.4316 1244.54 51.4664 1243.04 52.9667C1241.54 54.467 1239.5 55.3098 1237.38 55.3098Z" fill="white"/>
<path opacity="0.8" d="M482.054 43.6562L485.541 52.3574L489.027 43.6562H490.851V54.3203H489.444V50.1675L489.576 45.6851L486.075 54.3203H484.999L481.505 45.707L481.644 50.1675V54.3203H480.238V43.6562H482.054ZM498.014 53.5366C497.486 54.1567 496.712 54.4668 495.692 54.4668C494.847 54.4668 494.203 54.2227 493.758 53.7344C493.319 53.2412 493.097 52.5137 493.092 51.5518V46.3955H494.447V51.5151C494.447 52.7163 494.935 53.3169 495.912 53.3169C496.947 53.3169 497.635 52.9312 497.977 52.1597V46.3955H499.332V54.3203H498.043L498.014 53.5366ZM502.87 54.3203H501.515V43.0703H502.87V54.3203ZM506.883 44.4766V46.3955H508.363V47.4429H506.883V52.3574C506.883 52.6748 506.949 52.9141 507.081 53.0752C507.213 53.2314 507.438 53.3096 507.755 53.3096C507.911 53.3096 508.126 53.2803 508.399 53.2217V54.3203C508.043 54.418 507.696 54.4668 507.359 54.4668C506.754 54.4668 506.297 54.2837 505.99 53.9175C505.682 53.5513 505.528 53.0312 505.528 52.3574V47.4429H504.085V46.3955H505.528V44.4766H506.883ZM511.424 54.3203H510.069V46.3955H511.424V54.3203ZM509.959 44.2935C509.959 44.0737 510.025 43.8882 510.157 43.7368C510.294 43.5854 510.494 43.5098 510.758 43.5098C511.021 43.5098 511.222 43.5854 511.358 43.7368C511.495 43.8882 511.563 44.0737 511.563 44.2935C511.563 44.5132 511.495 44.6963 511.358 44.8428C511.222 44.9893 511.021 45.0625 510.758 45.0625C510.494 45.0625 510.294 44.9893 510.157 44.8428C510.025 44.6963 509.959 44.5132 509.959 44.2935ZM514.874 46.3955L514.911 47.2744C515.492 46.5908 516.275 46.249 517.262 46.249C518.37 46.249 519.125 46.6738 519.525 47.5234C519.789 47.1426 520.13 46.835 520.55 46.6006C520.975 46.3662 521.476 46.249 522.052 46.249C523.79 46.249 524.674 47.1694 524.703 49.0103V54.3203H523.348V49.0908C523.348 48.5244 523.219 48.1021 522.96 47.8237C522.701 47.5405 522.267 47.3989 521.656 47.3989C521.153 47.3989 520.736 47.5503 520.404 47.853C520.072 48.1509 519.879 48.5537 519.825 49.0615V54.3203H518.463V49.1274C518.463 47.9751 517.899 47.3989 516.771 47.3989C515.882 47.3989 515.274 47.7773 514.947 48.5342V54.3203H513.592V46.3955H514.874ZM528.226 54.3203H526.871V46.3955H528.226V54.3203ZM526.761 44.2935C526.761 44.0737 526.827 43.8882 526.959 43.7368C527.096 43.5854 527.296 43.5098 527.56 43.5098C527.823 43.5098 528.023 43.5854 528.16 43.7368C528.297 43.8882 528.365 44.0737 528.365 44.2935C528.365 44.5132 528.297 44.6963 528.16 44.8428C528.023 44.9893 527.823 45.0625 527.56 45.0625C527.296 45.0625 527.096 44.9893 526.959 44.8428C526.827 44.6963 526.761 44.5132 526.761 44.2935ZM531.874 54.3203H530.519V43.0703H531.874V54.3203ZM535.521 54.3203H534.166V43.0703H535.521V54.3203ZM537.337 50.2847C537.337 49.5083 537.489 48.8101 537.792 48.1899C538.099 47.5698 538.524 47.0913 539.066 46.7544C539.613 46.4175 540.235 46.249 540.934 46.249C542.013 46.249 542.884 46.6226 543.548 47.3696C544.217 48.1167 544.552 49.1104 544.552 50.3506V50.4458C544.552 51.2173 544.403 51.9106 544.105 52.5259C543.812 53.1362 543.39 53.6123 542.838 53.9541C542.291 54.2959 541.661 54.4668 540.948 54.4668C539.874 54.4668 539.002 54.0933 538.333 53.3462C537.669 52.5991 537.337 51.6104 537.337 50.3799V50.2847ZM538.7 50.4458C538.7 51.3247 538.902 52.0303 539.308 52.5625C539.718 53.0947 540.265 53.3608 540.948 53.3608C541.637 53.3608 542.184 53.0923 542.589 52.5552C542.994 52.0132 543.197 51.2563 543.197 50.2847C543.197 49.4155 542.989 48.7124 542.574 48.1753C542.164 47.6333 541.617 47.3623 540.934 47.3623C540.265 47.3623 539.725 47.6284 539.315 48.1606C538.905 48.6929 538.7 49.4546 538.7 50.4458ZM547.533 46.3955L547.577 47.3916C548.182 46.6299 548.973 46.249 549.95 46.249C551.625 46.249 552.469 47.1938 552.484 49.0835V54.3203H551.129V49.0762C551.124 48.5049 550.992 48.0825 550.733 47.8091C550.479 47.5356 550.082 47.3989 549.54 47.3989C549.1 47.3989 548.714 47.5161 548.382 47.7505C548.05 47.9849 547.792 48.2925 547.606 48.6733V54.3203H546.251V46.3955H547.533ZM559.42 54.3203C559.342 54.1641 559.278 53.8857 559.229 53.4854C558.6 54.1396 557.848 54.4668 556.974 54.4668C556.192 54.4668 555.55 54.2471 555.047 53.8076C554.549 53.3633 554.3 52.8018 554.3 52.123C554.3 51.2979 554.613 50.6582 555.238 50.2041C555.868 49.7451 556.751 49.5156 557.889 49.5156H559.208V48.8931C559.208 48.4194 559.066 48.0435 558.783 47.7651C558.5 47.4819 558.082 47.3403 557.53 47.3403C557.047 47.3403 556.642 47.4624 556.314 47.7065C555.987 47.9507 555.824 48.2461 555.824 48.5928H554.461C554.461 48.1973 554.601 47.8164 554.879 47.4502C555.162 47.0791 555.543 46.7861 556.021 46.5713C556.505 46.3564 557.035 46.249 557.611 46.249C558.524 46.249 559.239 46.4785 559.757 46.9375C560.274 47.3916 560.543 48.019 560.562 48.8198V52.4673C560.562 53.1948 560.655 53.7734 560.841 54.2031V54.3203H559.42ZM557.171 53.2876C557.596 53.2876 557.999 53.1777 558.38 52.958C558.761 52.7383 559.037 52.4526 559.208 52.1011V50.4751H558.146C556.485 50.4751 555.655 50.9609 555.655 51.9326C555.655 52.3574 555.797 52.6895 556.08 52.9287C556.363 53.168 556.727 53.2876 557.171 53.2876ZM566.517 47.6113C566.312 47.5771 566.09 47.5601 565.851 47.5601C564.962 47.5601 564.359 47.9385 564.042 48.6953V54.3203H562.687V46.3955H564.005L564.027 47.311C564.471 46.603 565.101 46.249 565.917 46.249C566.18 46.249 566.38 46.2832 566.517 46.3516V47.6113ZM569.242 54.3203H567.887V46.3955H569.242V54.3203ZM567.777 44.2935C567.777 44.0737 567.843 43.8882 567.975 43.7368C568.111 43.5854 568.312 43.5098 568.575 43.5098C568.839 43.5098 569.039 43.5854 569.176 43.7368C569.312 43.8882 569.381 44.0737 569.381 44.2935C569.381 44.5132 569.312 44.6963 569.176 44.8428C569.039 44.9893 568.839 45.0625 568.575 45.0625C568.312 45.0625 568.111 44.9893 567.975 44.8428C567.843 44.6963 567.777 44.5132 567.777 44.2935ZM571.058 50.2847C571.058 49.5083 571.209 48.8101 571.512 48.1899C571.82 47.5698 572.245 47.0913 572.787 46.7544C573.333 46.4175 573.956 46.249 574.654 46.249C575.733 46.249 576.605 46.6226 577.269 47.3696C577.938 48.1167 578.272 49.1104 578.272 50.3506V50.4458C578.272 51.2173 578.124 51.9106 577.826 52.5259C577.533 53.1362 577.11 53.6123 576.559 53.9541C576.012 54.2959 575.382 54.4668 574.669 54.4668C573.595 54.4668 572.723 54.0933 572.054 53.3462C571.39 52.5991 571.058 51.6104 571.058 50.3799V50.2847ZM572.42 50.4458C572.42 51.3247 572.623 52.0303 573.028 52.5625C573.438 53.0947 573.985 53.3608 574.669 53.3608C575.357 53.3608 575.904 53.0923 576.31 52.5552C576.715 52.0132 576.917 51.2563 576.917 50.2847C576.917 49.4155 576.71 48.7124 576.295 48.1753C575.885 47.6333 575.338 47.3623 574.654 47.3623C573.985 47.3623 573.446 47.6284 573.036 48.1606C572.625 48.6929 572.42 49.4546 572.42 50.4458ZM584.586 52.2183C584.586 51.8521 584.447 51.5688 584.168 51.3687C583.895 51.1636 583.414 50.9878 582.726 50.8413C582.042 50.6948 581.498 50.519 581.092 50.314C580.692 50.1089 580.394 49.8647 580.199 49.5815C580.008 49.2983 579.913 48.9614 579.913 48.5708C579.913 47.9214 580.187 47.3721 580.733 46.9229C581.285 46.4736 581.988 46.249 582.843 46.249C583.741 46.249 584.469 46.481 585.025 46.9448C585.587 47.4087 585.868 48.002 585.868 48.7246H584.505C584.505 48.3535 584.347 48.0337 584.029 47.7651C583.717 47.4966 583.321 47.3623 582.843 47.3623C582.35 47.3623 581.964 47.4697 581.686 47.6846C581.407 47.8994 581.268 48.1802 581.268 48.5269C581.268 48.854 581.397 49.1006 581.656 49.2666C581.915 49.4326 582.381 49.5913 583.055 49.7427C583.734 49.894 584.283 50.0747 584.703 50.2847C585.123 50.4946 585.433 50.7485 585.633 51.0464C585.838 51.3394 585.941 51.6982 585.941 52.123C585.941 52.8311 585.658 53.3999 585.091 53.8296C584.525 54.2544 583.79 54.4668 582.887 54.4668C582.252 54.4668 581.69 54.3545 581.202 54.1299C580.714 53.9053 580.331 53.5928 580.052 53.1924C579.779 52.7871 579.642 52.3501 579.642 51.8813H580.997C581.021 52.3354 581.202 52.6968 581.539 52.9653C581.881 53.229 582.33 53.3608 582.887 53.3608C583.399 53.3608 583.81 53.2583 584.117 53.0532C584.43 52.8433 584.586 52.5649 584.586 52.2183Z" fill="white"/>
<path d="M609.747 54.3203H608.34V43.6562H609.747V54.3203ZM613.394 46.3955L613.438 47.3916C614.043 46.6299 614.834 46.249 615.811 46.249C617.486 46.249 618.331 47.1938 618.345 49.0835V54.3203H616.99V49.0762C616.985 48.5049 616.854 48.0825 616.595 47.8091C616.341 47.5356 615.943 47.3989 615.401 47.3989C614.961 47.3989 614.576 47.5161 614.244 47.7505C613.912 47.9849 613.653 48.2925 613.467 48.6733V54.3203H612.112V46.3955H613.394ZM621.67 46.3955L621.714 47.3916C622.32 46.6299 623.111 46.249 624.087 46.249C625.762 46.249 626.607 47.1938 626.622 49.0835V54.3203H625.267V49.0762C625.262 48.5049 625.13 48.0825 624.871 47.8091C624.617 47.5356 624.219 47.3989 623.677 47.3989C623.238 47.3989 622.852 47.5161 622.52 47.7505C622.188 47.9849 621.929 48.2925 621.744 48.6733V54.3203H620.389V46.3955H621.67ZM628.306 50.2847C628.306 49.5083 628.458 48.8101 628.76 48.1899C629.068 47.5698 629.493 47.0913 630.035 46.7544C630.582 46.4175 631.204 46.249 631.902 46.249C632.981 46.249 633.853 46.6226 634.517 47.3696C635.186 48.1167 635.521 49.1104 635.521 50.3506V50.4458C635.521 51.2173 635.372 51.9106 635.074 52.5259C634.781 53.1362 634.358 53.6123 633.807 53.9541C633.26 54.2959 632.63 54.4668 631.917 54.4668C630.843 54.4668 629.971 54.0933 629.302 53.3462C628.638 52.5991 628.306 51.6104 628.306 50.3799V50.2847ZM629.668 50.4458C629.668 51.3247 629.871 52.0303 630.276 52.5625C630.687 53.0947 631.233 53.3608 631.917 53.3608C632.605 53.3608 633.152 53.0923 633.558 52.5552C633.963 52.0132 634.166 51.2563 634.166 50.2847C634.166 49.4155 633.958 48.7124 633.543 48.1753C633.133 47.6333 632.586 47.3623 631.902 47.3623C631.233 47.3623 630.694 47.6284 630.284 48.1606C629.874 48.6929 629.668 49.4546 629.668 50.4458ZM639.717 52.4819L641.68 46.3955H643.064L640.223 54.3203H639.19L636.319 46.3955H637.703L639.717 52.4819ZM649.144 54.3203C649.065 54.1641 649.002 53.8857 648.953 53.4854C648.323 54.1396 647.571 54.4668 646.697 54.4668C645.916 54.4668 645.274 54.2471 644.771 53.8076C644.273 53.3633 644.024 52.8018 644.024 52.123C644.024 51.2979 644.336 50.6582 644.961 50.2041C645.591 49.7451 646.475 49.5156 647.613 49.5156H648.931V48.8931C648.931 48.4194 648.79 48.0435 648.506 47.7651C648.223 47.4819 647.806 47.3403 647.254 47.3403C646.771 47.3403 646.365 47.4624 646.038 47.7065C645.711 47.9507 645.547 48.2461 645.547 48.5928H644.185C644.185 48.1973 644.324 47.8164 644.603 47.4502C644.886 47.0791 645.267 46.7861 645.745 46.5713C646.229 46.3564 646.758 46.249 647.334 46.249C648.248 46.249 648.963 46.4785 649.48 46.9375C649.998 47.3916 650.267 48.019 650.286 48.8198V52.4673C650.286 53.1948 650.379 53.7734 650.564 54.2031V54.3203H649.144ZM646.895 53.2876C647.32 53.2876 647.723 53.1777 648.104 52.958C648.484 52.7383 648.76 52.4526 648.931 52.1011V50.4751H647.869C646.209 50.4751 645.379 50.9609 645.379 51.9326C645.379 52.3574 645.521 52.6895 645.804 52.9287C646.087 53.168 646.451 53.2876 646.895 53.2876ZM655.589 53.3608C656.072 53.3608 656.495 53.2144 656.856 52.9214C657.217 52.6284 657.417 52.2622 657.457 51.8228H658.738C658.714 52.2769 658.558 52.709 658.27 53.1191C657.981 53.5293 657.596 53.8564 657.112 54.1006C656.634 54.3447 656.126 54.4668 655.589 54.4668C654.51 54.4668 653.65 54.1079 653.011 53.3901C652.376 52.6675 652.059 51.6812 652.059 50.4312V50.2041C652.059 49.4326 652.2 48.7466 652.483 48.146C652.767 47.5454 653.172 47.0791 653.699 46.7471C654.231 46.415 654.859 46.249 655.582 46.249C656.47 46.249 657.208 46.5151 657.793 47.0474C658.384 47.5796 658.699 48.2705 658.738 49.1201H657.457C657.417 48.6074 657.222 48.1875 656.871 47.8604C656.524 47.5283 656.094 47.3623 655.582 47.3623C654.893 47.3623 654.358 47.6113 653.978 48.1094C653.602 48.6025 653.414 49.3179 653.414 50.2554V50.5117C653.414 51.4248 653.602 52.1279 653.978 52.6211C654.354 53.1143 654.891 53.3608 655.589 53.3608ZM661.734 54.3203H660.379V46.3955H661.734V54.3203ZM660.269 44.2935C660.269 44.0737 660.335 43.8882 660.467 43.7368C660.604 43.5854 660.804 43.5098 661.067 43.5098C661.331 43.5098 661.531 43.5854 661.668 43.7368C661.805 43.8882 661.873 44.0737 661.873 44.2935C661.873 44.5132 661.805 44.6963 661.668 44.8428C661.531 44.9893 661.331 45.0625 661.067 45.0625C660.804 45.0625 660.604 44.9893 660.467 44.8428C660.335 44.6963 660.269 44.5132 660.269 44.2935ZM663.55 50.2847C663.55 49.5083 663.702 48.8101 664.004 48.1899C664.312 47.5698 664.737 47.0913 665.279 46.7544C665.826 46.4175 666.448 46.249 667.146 46.249C668.226 46.249 669.097 46.6226 669.761 47.3696C670.43 48.1167 670.765 49.1104 670.765 50.3506V50.4458C670.765 51.2173 670.616 51.9106 670.318 52.5259C670.025 53.1362 669.603 53.6123 669.051 53.9541C668.504 54.2959 667.874 54.4668 667.161 54.4668C666.087 54.4668 665.215 54.0933 664.546 53.3462C663.882 52.5991 663.55 51.6104 663.55 50.3799V50.2847ZM664.913 50.4458C664.913 51.3247 665.115 52.0303 665.521 52.5625C665.931 53.0947 666.478 53.3608 667.161 53.3608C667.85 53.3608 668.396 53.0923 668.802 52.5552C669.207 52.0132 669.41 51.2563 669.41 50.2847C669.41 49.4155 669.202 48.7124 668.787 48.1753C668.377 47.6333 667.83 47.3623 667.146 47.3623C666.478 47.3623 665.938 47.6284 665.528 48.1606C665.118 48.6929 664.913 49.4546 664.913 50.4458ZM667.762 43.0703H669.402L667.439 45.2236H666.348L667.762 43.0703ZM673.746 46.3955L673.79 47.3916C674.395 46.6299 675.186 46.249 676.163 46.249C677.837 46.249 678.682 47.1938 678.697 49.0835V54.3203H677.342V49.0762C677.337 48.5049 677.205 48.0825 676.946 47.8091C676.692 47.5356 676.294 47.3989 675.752 47.3989C675.313 47.3989 674.927 47.5161 674.595 47.7505C674.263 47.9849 674.004 48.2925 673.819 48.6733V54.3203H672.464V46.3955H673.746Z" fill="#29ABE2"/>
<path opacity="0.8" d="M709.434 54.3203H708.02L702.651 46.1025V54.3203H701.238V43.6562H702.651L708.035 51.9106V43.6562H709.434V54.3203ZM715.007 54.4668C713.933 54.4668 713.059 54.1152 712.385 53.4121C711.711 52.7041 711.375 51.7593 711.375 50.5776V50.3286C711.375 49.5425 711.523 48.8418 711.821 48.2266C712.124 47.6064 712.544 47.123 713.081 46.7764C713.623 46.4248 714.209 46.249 714.839 46.249C715.869 46.249 716.67 46.5884 717.241 47.2671C717.812 47.9458 718.098 48.9175 718.098 50.1821V50.7461H712.729C712.749 51.5273 712.976 52.1597 713.411 52.6431C713.85 53.1216 714.407 53.3608 715.081 53.3608C715.559 53.3608 715.964 53.2632 716.296 53.0679C716.628 52.8726 716.919 52.6138 717.168 52.2915L717.996 52.936C717.332 53.9565 716.335 54.4668 715.007 54.4668ZM714.839 47.3623C714.292 47.3623 713.833 47.5625 713.462 47.9629C713.091 48.3584 712.861 48.915 712.773 49.6328H716.743V49.5303C716.704 48.8418 716.519 48.3096 716.187 47.9336C715.854 47.5527 715.405 47.3623 714.839 47.3623ZM719.351 50.292C719.351 49.0566 719.636 48.0752 720.208 47.3477C720.779 46.6152 721.536 46.249 722.478 46.249C723.445 46.249 724.199 46.5908 724.741 47.2744L724.807 46.3955H726.045V54.1299C726.045 55.1553 725.74 55.9634 725.129 56.5542C724.524 57.145 723.708 57.4404 722.683 57.4404C722.112 57.4404 721.553 57.3184 721.006 57.0742C720.459 56.8301 720.042 56.4956 719.753 56.0708L720.457 55.2578C721.038 55.9756 721.748 56.3345 722.588 56.3345C723.247 56.3345 723.76 56.1489 724.126 55.7778C724.497 55.4067 724.683 54.8843 724.683 54.2104V53.5293C724.141 54.1543 723.401 54.4668 722.463 54.4668C721.536 54.4668 720.784 54.0933 720.208 53.3462C719.636 52.5991 719.351 51.5811 719.351 50.292ZM720.713 50.4458C720.713 51.3394 720.896 52.0425 721.262 52.5552C721.628 53.063 722.141 53.3169 722.8 53.3169C723.655 53.3169 724.282 52.9287 724.683 52.1523V48.5342C724.268 47.7773 723.645 47.3989 722.815 47.3989C722.156 47.3989 721.641 47.6553 721.27 48.168C720.898 48.6807 720.713 49.4399 720.713 50.4458ZM727.737 50.2847C727.737 49.5083 727.888 48.8101 728.191 48.1899C728.499 47.5698 728.923 47.0913 729.465 46.7544C730.012 46.4175 730.635 46.249 731.333 46.249C732.412 46.249 733.284 46.6226 733.948 47.3696C734.617 48.1167 734.951 49.1104 734.951 50.3506V50.4458C734.951 51.2173 734.802 51.9106 734.504 52.5259C734.211 53.1362 733.789 53.6123 733.237 53.9541C732.69 54.2959 732.061 54.4668 731.348 54.4668C730.273 54.4668 729.402 54.0933 728.733 53.3462C728.069 52.5991 727.737 51.6104 727.737 50.3799V50.2847ZM729.099 50.4458C729.099 51.3247 729.302 52.0303 729.707 52.5625C730.117 53.0947 730.664 53.3608 731.348 53.3608C732.036 53.3608 732.583 53.0923 732.988 52.5552C733.394 52.0132 733.596 51.2563 733.596 50.2847C733.596 49.4155 733.389 48.7124 732.974 48.1753C732.563 47.6333 732.017 47.3623 731.333 47.3623C730.664 47.3623 730.125 47.6284 729.714 48.1606C729.304 48.6929 729.099 49.4546 729.099 50.4458ZM739.829 53.3608C740.312 53.3608 740.735 53.2144 741.096 52.9214C741.458 52.6284 741.658 52.2622 741.697 51.8228H742.979C742.954 52.2769 742.798 52.709 742.51 53.1191C742.222 53.5293 741.836 53.8564 741.353 54.1006C740.874 54.3447 740.366 54.4668 739.829 54.4668C738.75 54.4668 737.891 54.1079 737.251 53.3901C736.616 52.6675 736.299 51.6812 736.299 50.4312V50.2041C736.299 49.4326 736.44 48.7466 736.724 48.146C737.007 47.5454 737.412 47.0791 737.939 46.7471C738.472 46.415 739.099 46.249 739.822 46.249C740.71 46.249 741.448 46.5151 742.034 47.0474C742.625 47.5796 742.939 48.2705 742.979 49.1201H741.697C741.658 48.6074 741.462 48.1875 741.111 47.8604C740.764 47.5283 740.334 47.3623 739.822 47.3623C739.133 47.3623 738.599 47.6113 738.218 48.1094C737.842 48.6025 737.654 49.3179 737.654 50.2554V50.5117C737.654 51.4248 737.842 52.1279 738.218 52.6211C738.594 53.1143 739.131 53.3608 739.829 53.3608ZM745.974 54.3203H744.619V46.3955H745.974V54.3203ZM744.509 44.2935C744.509 44.0737 744.575 43.8882 744.707 43.7368C744.844 43.5854 745.044 43.5098 745.308 43.5098C745.571 43.5098 745.771 43.5854 745.908 43.7368C746.045 43.8882 746.113 44.0737 746.113 44.2935C746.113 44.5132 746.045 44.6963 745.908 44.8428C745.771 44.9893 745.571 45.0625 745.308 45.0625C745.044 45.0625 744.844 44.9893 744.707 44.8428C744.575 44.6963 744.509 44.5132 744.509 44.2935ZM747.791 50.2847C747.791 49.5083 747.942 48.8101 748.245 48.1899C748.552 47.5698 748.977 47.0913 749.519 46.7544C750.066 46.4175 750.688 46.249 751.387 46.249C752.466 46.249 753.337 46.6226 754.001 47.3696C754.67 48.1167 755.005 49.1104 755.005 50.3506V50.4458C755.005 51.2173 754.856 51.9106 754.558 52.5259C754.265 53.1362 753.843 53.6123 753.291 53.9541C752.744 54.2959 752.114 54.4668 751.401 54.4668C750.327 54.4668 749.456 54.0933 748.787 53.3462C748.123 52.5991 747.791 51.6104 747.791 50.3799V50.2847ZM749.153 50.4458C749.153 51.3247 749.355 52.0303 749.761 52.5625C750.171 53.0947 750.718 53.3608 751.401 53.3608C752.09 53.3608 752.637 53.0923 753.042 52.5552C753.447 52.0132 753.65 51.2563 753.65 50.2847C753.65 49.4155 753.442 48.7124 753.027 48.1753C752.617 47.6333 752.07 47.3623 751.387 47.3623C750.718 47.3623 750.178 47.6284 749.768 48.1606C749.358 48.6929 749.153 49.4546 749.153 50.4458Z" fill="white"/>
<path opacity="0.8" d="M778.644 50.1455V54.3203H777.238V43.6562H781.171C782.338 43.6562 783.251 43.9541 783.91 44.5498C784.574 45.1455 784.906 45.9341 784.906 46.9155C784.906 47.9507 784.582 48.749 783.932 49.3105C783.288 49.8672 782.362 50.1455 781.156 50.1455H778.644ZM778.644 48.9956H781.171C781.923 48.9956 782.499 48.8198 782.899 48.4683C783.3 48.1118 783.5 47.5991 783.5 46.9302C783.5 46.2954 783.3 45.7876 782.899 45.4067C782.499 45.0259 781.95 44.8281 781.251 44.8135H778.644V48.9956ZM789.674 54.4668C788.6 54.4668 787.726 54.1152 787.052 53.4121C786.378 52.7041 786.042 51.7593 786.042 50.5776V50.3286C786.042 49.5425 786.19 48.8418 786.488 48.2266C786.791 47.6064 787.211 47.123 787.748 46.7764C788.29 46.4248 788.876 46.249 789.506 46.249C790.536 46.249 791.337 46.5884 791.908 47.2671C792.479 47.9458 792.765 48.9175 792.765 50.1821V50.7461H787.396C787.416 51.5273 787.643 52.1597 788.078 52.6431C788.517 53.1216 789.074 53.3608 789.748 53.3608C790.226 53.3608 790.631 53.2632 790.963 53.0679C791.295 52.8726 791.586 52.6138 791.835 52.2915L792.663 52.936C791.999 53.9565 791.002 54.4668 789.674 54.4668ZM789.506 47.3623C788.959 47.3623 788.5 47.5625 788.129 47.9629C787.758 48.3584 787.528 48.915 787.44 49.6328H791.41V49.5303C791.371 48.8418 791.186 48.3096 790.854 47.9336C790.521 47.5527 790.072 47.3623 789.506 47.3623ZM794.01 50.292C794.01 49.0469 794.296 48.063 794.867 47.3403C795.438 46.6128 796.205 46.249 797.167 46.249C798.104 46.249 798.844 46.564 799.386 47.1938L799.445 46.3955H800.69V57.3672H799.335V53.5879C798.788 54.1738 798.061 54.4668 797.152 54.4668C796.195 54.4668 795.431 54.0957 794.86 53.3535C794.293 52.6064 794.01 51.6177 794.01 50.3872V50.292ZM795.365 50.4458C795.365 51.354 795.556 52.0669 795.937 52.5845C796.322 53.1021 796.84 53.3608 797.489 53.3608C798.295 53.3608 798.91 53.0044 799.335 52.2915V48.4097C798.905 47.7114 798.295 47.3623 797.504 47.3623C796.85 47.3623 796.33 47.6235 795.944 48.146C795.558 48.6636 795.365 49.4302 795.365 50.4458ZM807.758 53.5366C807.23 54.1567 806.457 54.4668 805.436 54.4668C804.591 54.4668 803.947 54.2227 803.502 53.7344C803.063 53.2412 802.841 52.5137 802.836 51.5518V46.3955H804.191V51.5151C804.191 52.7163 804.679 53.3169 805.656 53.3169C806.691 53.3169 807.379 52.9312 807.721 52.1597V46.3955H809.076V54.3203H807.787L807.758 53.5366ZM814.43 54.4668C813.356 54.4668 812.482 54.1152 811.808 53.4121C811.134 52.7041 810.797 51.7593 810.797 50.5776V50.3286C810.797 49.5425 810.946 48.8418 811.244 48.2266C811.547 47.6064 811.967 47.123 812.504 46.7764C813.046 46.4248 813.632 46.249 814.262 46.249C815.292 46.249 816.093 46.5884 816.664 47.2671C817.235 47.9458 817.521 48.9175 817.521 50.1821V50.7461H812.152C812.172 51.5273 812.399 52.1597 812.833 52.6431C813.273 53.1216 813.83 53.3608 814.503 53.3608C814.982 53.3608 815.387 53.2632 815.719 53.0679C816.051 52.8726 816.342 52.6138 816.591 52.2915L817.418 52.936C816.754 53.9565 815.758 54.4668 814.43 54.4668ZM814.262 47.3623C813.715 47.3623 813.256 47.5625 812.885 47.9629C812.514 48.3584 812.284 48.915 812.196 49.6328H816.166V49.5303C816.127 48.8418 815.941 48.3096 815.609 47.9336C815.277 47.5527 814.828 47.3623 814.262 47.3623ZM820.377 46.3955L820.421 47.3916C821.027 46.6299 821.818 46.249 822.794 46.249C824.469 46.249 825.314 47.1938 825.329 49.0835V54.3203H823.974V49.0762C823.969 48.5049 823.837 48.0825 823.578 47.8091C823.324 47.5356 822.926 47.3989 822.384 47.3989C821.945 47.3989 821.559 47.5161 821.227 47.7505C820.895 47.9849 820.636 48.2925 820.451 48.6733V54.3203H819.096V46.3955H820.377ZM824.86 43.3047C824.86 43.832 824.708 44.2593 824.406 44.5864C824.108 44.9136 823.734 45.0771 823.285 45.0771C823.085 45.0771 822.912 45.0527 822.765 45.0039C822.619 44.9551 822.426 44.855 822.187 44.7036C821.952 44.5522 821.781 44.4619 821.674 44.4326C821.571 44.3984 821.452 44.3813 821.315 44.3813C821.115 44.3813 820.944 44.4595 820.802 44.6157C820.661 44.7671 820.59 44.9624 820.59 45.2017L819.682 45.1504C819.682 44.6279 819.828 44.1958 820.121 43.854C820.419 43.5122 820.795 43.3413 821.249 43.3413C821.42 43.3413 821.574 43.3657 821.71 43.4146C821.847 43.4634 822.033 43.5586 822.267 43.7002C822.501 43.8418 822.68 43.9346 822.802 43.9785C822.929 44.0225 823.068 44.0444 823.219 44.0444C823.429 44.0444 823.603 43.9614 823.739 43.7954C823.881 43.6294 823.952 43.4365 823.952 43.2168L824.86 43.3047ZM827.013 50.2847C827.013 49.5083 827.165 48.8101 827.467 48.1899C827.775 47.5698 828.2 47.0913 828.742 46.7544C829.289 46.4175 829.911 46.249 830.609 46.249C831.688 46.249 832.56 46.6226 833.224 47.3696C833.893 48.1167 834.228 49.1104 834.228 50.3506V50.4458C834.228 51.2173 834.079 51.9106 833.781 52.5259C833.488 53.1362 833.065 53.6123 832.514 53.9541C831.967 54.2959 831.337 54.4668 830.624 54.4668C829.55 54.4668 828.678 54.0933 828.009 53.3462C827.345 52.5991 827.013 51.6104 827.013 50.3799V50.2847ZM828.375 50.4458C828.375 51.3247 828.578 52.0303 828.983 52.5625C829.394 53.0947 829.94 53.3608 830.624 53.3608C831.312 53.3608 831.859 53.0923 832.265 52.5552C832.67 52.0132 832.873 51.2563 832.873 50.2847C832.873 49.4155 832.665 48.7124 832.25 48.1753C831.84 47.6333 831.293 47.3623 830.609 47.3623C829.94 47.3623 829.401 47.6284 828.991 48.1606C828.581 48.6929 828.375 49.4546 828.375 50.4458ZM840.541 52.2183C840.541 51.8521 840.402 51.5688 840.124 51.3687C839.85 51.1636 839.369 50.9878 838.681 50.8413C837.997 50.6948 837.453 50.519 837.047 50.314C836.647 50.1089 836.349 49.8647 836.154 49.5815C835.963 49.2983 835.868 48.9614 835.868 48.5708C835.868 47.9214 836.142 47.3721 836.688 46.9229C837.24 46.4736 837.943 46.249 838.798 46.249C839.696 46.249 840.424 46.481 840.98 46.9448C841.542 47.4087 841.823 48.002 841.823 48.7246H840.46C840.46 48.3535 840.302 48.0337 839.984 47.7651C839.672 47.4966 839.276 47.3623 838.798 47.3623C838.305 47.3623 837.919 47.4697 837.641 47.6846C837.362 47.8994 837.223 48.1802 837.223 48.5269C837.223 48.854 837.353 49.1006 837.611 49.2666C837.87 49.4326 838.336 49.5913 839.01 49.7427C839.689 49.894 840.238 50.0747 840.658 50.2847C841.078 50.4946 841.388 50.7485 841.588 51.0464C841.793 51.3394 841.896 51.6982 841.896 52.123C841.896 52.8311 841.613 53.3999 841.046 53.8296C840.48 54.2544 839.745 54.4668 838.842 54.4668C838.207 54.4668 837.646 54.3545 837.157 54.1299C836.669 53.9053 836.286 53.5928 836.007 53.1924C835.734 52.7871 835.597 52.3501 835.597 51.8813H836.952C836.977 52.3354 837.157 52.6968 837.494 52.9653C837.836 53.229 838.285 53.3608 838.842 53.3608C839.354 53.3608 839.765 53.2583 840.072 53.0532C840.385 52.8433 840.541 52.5649 840.541 52.2183ZM848.664 46.3955L848.708 47.3916C849.313 46.6299 850.104 46.249 851.081 46.249C852.755 46.249 853.6 47.1938 853.615 49.0835V54.3203H852.26V49.0762C852.255 48.5049 852.123 48.0825 851.864 47.8091C851.61 47.5356 851.212 47.3989 850.67 47.3989C850.231 47.3989 849.845 47.5161 849.513 47.7505C849.181 47.9849 848.922 48.2925 848.737 48.6733V54.3203H847.382V46.3955H848.664ZM858.947 54.4668C857.873 54.4668 856.999 54.1152 856.325 53.4121C855.651 52.7041 855.314 51.7593 855.314 50.5776V50.3286C855.314 49.5425 855.463 48.8418 855.761 48.2266C856.063 47.6064 856.483 47.123 857.021 46.7764C857.562 46.4248 858.148 46.249 858.778 46.249C859.809 46.249 860.609 46.5884 861.181 47.2671C861.752 47.9458 862.038 48.9175 862.038 50.1821V50.7461H856.669C856.688 51.5273 856.916 52.1597 857.35 52.6431C857.79 53.1216 858.346 53.3608 859.02 53.3608C859.499 53.3608 859.904 53.2632 860.236 53.0679C860.568 52.8726 860.858 52.6138 861.107 52.2915L861.935 52.936C861.271 53.9565 860.275 54.4668 858.947 54.4668ZM858.778 47.3623C858.231 47.3623 857.772 47.5625 857.401 47.9629C857.03 48.3584 856.801 48.915 856.713 49.6328H860.683V49.5303C860.644 48.8418 860.458 48.3096 860.126 47.9336C859.794 47.5527 859.345 47.3623 858.778 47.3623ZM863.29 50.292C863.29 49.0566 863.576 48.0752 864.147 47.3477C864.718 46.6152 865.475 46.249 866.417 46.249C867.384 46.249 868.139 46.5908 868.681 47.2744L868.747 46.3955H869.984V54.1299C869.984 55.1553 869.679 55.9634 869.069 56.5542C868.463 57.145 867.648 57.4404 866.623 57.4404C866.051 57.4404 865.492 57.3184 864.945 57.0742C864.398 56.8301 863.981 56.4956 863.693 56.0708L864.396 55.2578C864.977 55.9756 865.688 56.3345 866.527 56.3345C867.187 56.3345 867.699 56.1489 868.065 55.7778C868.437 55.4067 868.622 54.8843 868.622 54.2104V53.5293C868.08 54.1543 867.34 54.4668 866.403 54.4668C865.475 54.4668 864.723 54.0933 864.147 53.3462C863.576 52.5991 863.29 51.5811 863.29 50.292ZM864.652 50.4458C864.652 51.3394 864.835 52.0425 865.202 52.5552C865.568 53.063 866.081 53.3169 866.74 53.3169C867.594 53.3169 868.222 52.9287 868.622 52.1523V48.5342C868.207 47.7773 867.584 47.3989 866.754 47.3989C866.095 47.3989 865.58 47.6553 865.209 48.168C864.838 48.6807 864.652 49.4399 864.652 50.4458ZM871.676 50.2847C871.676 49.5083 871.828 48.8101 872.13 48.1899C872.438 47.5698 872.863 47.0913 873.405 46.7544C873.952 46.4175 874.574 46.249 875.272 46.249C876.352 46.249 877.223 46.6226 877.887 47.3696C878.556 48.1167 878.891 49.1104 878.891 50.3506V50.4458C878.891 51.2173 878.742 51.9106 878.444 52.5259C878.151 53.1362 877.729 53.6123 877.177 53.9541C876.63 54.2959 876 54.4668 875.287 54.4668C874.213 54.4668 873.341 54.0933 872.672 53.3462C872.008 52.5991 871.676 51.6104 871.676 50.3799V50.2847ZM873.039 50.4458C873.039 51.3247 873.241 52.0303 873.646 52.5625C874.057 53.0947 874.604 53.3608 875.287 53.3608C875.976 53.3608 876.522 53.0923 876.928 52.5552C877.333 52.0132 877.536 51.2563 877.536 50.2847C877.536 49.4155 877.328 48.7124 876.913 48.1753C876.503 47.6333 875.956 47.3623 875.272 47.3623C874.604 47.3623 874.064 47.6284 873.654 48.1606C873.244 48.6929 873.039 49.4546 873.039 50.4458ZM883.769 53.3608C884.252 53.3608 884.674 53.2144 885.036 52.9214C885.397 52.6284 885.597 52.2622 885.636 51.8228H886.918C886.894 52.2769 886.737 52.709 886.449 53.1191C886.161 53.5293 885.775 53.8564 885.292 54.1006C884.813 54.3447 884.306 54.4668 883.769 54.4668C882.689 54.4668 881.83 54.1079 881.19 53.3901C880.556 52.6675 880.238 51.6812 880.238 50.4312V50.2041C880.238 49.4326 880.38 48.7466 880.663 48.146C880.946 47.5454 881.352 47.0791 881.879 46.7471C882.411 46.415 883.039 46.249 883.761 46.249C884.65 46.249 885.387 46.5151 885.973 47.0474C886.564 47.5796 886.879 48.2705 886.918 49.1201H885.636C885.597 48.6074 885.402 48.1875 885.05 47.8604C884.704 47.5283 884.274 47.3623 883.761 47.3623C883.073 47.3623 882.538 47.6113 882.157 48.1094C881.781 48.6025 881.593 49.3179 881.593 50.2554V50.5117C881.593 51.4248 881.781 52.1279 882.157 52.6211C882.533 53.1143 883.07 53.3608 883.769 53.3608ZM889.914 54.3203H888.559V46.3955H889.914V54.3203ZM888.449 44.2935C888.449 44.0737 888.515 43.8882 888.646 43.7368C888.783 43.5854 888.983 43.5098 889.247 43.5098C889.511 43.5098 889.711 43.5854 889.848 43.7368C889.984 43.8882 890.053 44.0737 890.053 44.2935C890.053 44.5132 889.984 44.6963 889.848 44.8428C889.711 44.9893 889.511 45.0625 889.247 45.0625C888.983 45.0625 888.783 44.9893 888.646 44.8428C888.515 44.6963 888.449 44.5132 888.449 44.2935ZM891.73 50.2847C891.73 49.5083 891.881 48.8101 892.184 48.1899C892.492 47.5698 892.917 47.0913 893.458 46.7544C894.005 46.4175 894.628 46.249 895.326 46.249C896.405 46.249 897.277 46.6226 897.941 47.3696C898.61 48.1167 898.944 49.1104 898.944 50.3506V50.4458C898.944 51.2173 898.795 51.9106 898.498 52.5259C898.205 53.1362 897.782 53.6123 897.23 53.9541C896.684 54.2959 896.054 54.4668 895.341 54.4668C894.267 54.4668 893.395 54.0933 892.726 53.3462C892.062 52.5991 891.73 51.6104 891.73 50.3799V50.2847ZM893.092 50.4458C893.092 51.3247 893.295 52.0303 893.7 52.5625C894.11 53.0947 894.657 53.3608 895.341 53.3608C896.029 53.3608 896.576 53.0923 896.981 52.5552C897.387 52.0132 897.589 51.2563 897.589 50.2847C897.589 49.4155 897.382 48.7124 896.967 48.1753C896.557 47.6333 896.01 47.3623 895.326 47.3623C894.657 47.3623 894.118 47.6284 893.708 48.1606C893.297 48.6929 893.092 49.4546 893.092 50.4458ZM905.258 52.2183C905.258 51.8521 905.119 51.5688 904.84 51.3687C904.567 51.1636 904.086 50.9878 903.397 50.8413C902.714 50.6948 902.169 50.519 901.764 50.314C901.364 50.1089 901.066 49.8647 900.871 49.5815C900.68 49.2983 900.585 48.9614 900.585 48.5708C900.585 47.9214 900.858 47.3721 901.405 46.9229C901.957 46.4736 902.66 46.249 903.515 46.249C904.413 46.249 905.141 46.481 905.697 46.9448C906.259 47.4087 906.54 48.002 906.54 48.7246H905.177C905.177 48.3535 905.019 48.0337 904.701 47.7651C904.389 47.4966 903.993 47.3623 903.515 47.3623C903.021 47.3623 902.636 47.4697 902.357 47.6846C902.079 47.8994 901.94 48.1802 901.94 48.5269C901.94 48.854 902.069 49.1006 902.328 49.2666C902.587 49.4326 903.053 49.5913 903.727 49.7427C904.406 49.894 904.955 50.0747 905.375 50.2847C905.795 50.4946 906.105 50.7485 906.305 51.0464C906.51 51.3394 906.613 51.6982 906.613 52.123C906.613 52.8311 906.33 53.3999 905.763 53.8296C905.197 54.2544 904.462 54.4668 903.559 54.4668C902.924 54.4668 902.362 54.3545 901.874 54.1299C901.386 53.9053 901.002 53.5928 900.724 53.1924C900.451 52.7871 900.314 52.3501 900.314 51.8813H901.669C901.693 52.3354 901.874 52.6968 902.211 52.9653C902.553 53.229 903.002 53.3608 903.559 53.3608C904.071 53.3608 904.481 53.2583 904.789 53.0532C905.102 52.8433 905.258 52.5649 905.258 52.2183Z" fill="white"/>
<path opacity="0.8" d="M935.266 49.3911H930.644V53.1704H936.013V54.3203H929.238V43.6562H935.939V44.8135H930.644V48.2412H935.266V49.3911ZM942.165 52.2183C942.165 51.8521 942.026 51.5688 941.748 51.3687C941.474 51.1636 940.993 50.9878 940.305 50.8413C939.621 50.6948 939.077 50.519 938.671 50.314C938.271 50.1089 937.973 49.8647 937.778 49.5815C937.587 49.2983 937.492 48.9614 937.492 48.5708C937.492 47.9214 937.766 47.3721 938.312 46.9229C938.864 46.4736 939.567 46.249 940.422 46.249C941.32 46.249 942.048 46.481 942.604 46.9448C943.166 47.4087 943.447 48.002 943.447 48.7246H942.084C942.084 48.3535 941.926 48.0337 941.608 47.7651C941.296 47.4966 940.9 47.3623 940.422 47.3623C939.929 47.3623 939.543 47.4697 939.265 47.6846C938.986 47.8994 938.847 48.1802 938.847 48.5269C938.847 48.854 938.977 49.1006 939.235 49.2666C939.494 49.4326 939.96 49.5913 940.634 49.7427C941.313 49.894 941.862 50.0747 942.282 50.2847C942.702 50.4946 943.012 50.7485 943.212 51.0464C943.417 51.3394 943.52 51.6982 943.52 52.123C943.52 52.8311 943.237 53.3999 942.67 53.8296C942.104 54.2544 941.369 54.4668 940.466 54.4668C939.831 54.4668 939.27 54.3545 938.781 54.1299C938.293 53.9053 937.91 53.5928 937.631 53.1924C937.358 52.7871 937.221 52.3501 937.221 51.8813H938.576C938.601 52.3354 938.781 52.6968 939.118 52.9653C939.46 53.229 939.909 53.3608 940.466 53.3608C940.979 53.3608 941.389 53.2583 941.696 53.0532C942.009 52.8433 942.165 52.5649 942.165 52.2183ZM947.124 44.4766V46.3955H948.603V47.4429H947.124V52.3574C947.124 52.6748 947.189 52.9141 947.321 53.0752C947.453 53.2314 947.678 53.3096 947.995 53.3096C948.151 53.3096 948.366 53.2803 948.64 53.2217V54.3203C948.283 54.418 947.937 54.4668 947.6 54.4668C946.994 54.4668 946.538 54.2837 946.23 53.9175C945.922 53.5513 945.769 53.0312 945.769 52.3574V47.4429H944.326V46.3955H945.769V44.4766H947.124ZM951.665 54.3203H950.31V46.3955H951.665V54.3203ZM950.2 44.2935C950.2 44.0737 950.266 43.8882 950.397 43.7368C950.534 43.5854 950.734 43.5098 950.998 43.5098C951.262 43.5098 951.462 43.5854 951.599 43.7368C951.735 43.8882 951.804 44.0737 951.804 44.2935C951.804 44.5132 951.735 44.6963 951.599 44.8428C951.462 44.9893 951.262 45.0625 950.998 45.0625C950.734 45.0625 950.534 44.9893 950.397 44.8428C950.266 44.6963 950.2 44.5132 950.2 44.2935ZM955.312 54.3203H953.957V43.0703H955.312V54.3203ZM957.128 50.2847C957.128 49.5083 957.28 48.8101 957.583 48.1899C957.89 47.5698 958.315 47.0913 958.857 46.7544C959.404 46.4175 960.026 46.249 960.725 46.249C961.804 46.249 962.675 46.6226 963.339 47.3696C964.008 48.1167 964.343 49.1104 964.343 50.3506V50.4458C964.343 51.2173 964.194 51.9106 963.896 52.5259C963.603 53.1362 963.181 53.6123 962.629 53.9541C962.082 54.2959 961.452 54.4668 960.739 54.4668C959.665 54.4668 958.793 54.0933 958.125 53.3462C957.46 52.5991 957.128 51.6104 957.128 50.3799V50.2847ZM958.491 50.4458C958.491 51.3247 958.693 52.0303 959.099 52.5625C959.509 53.0947 960.056 53.3608 960.739 53.3608C961.428 53.3608 961.975 53.0923 962.38 52.5552C962.785 52.0132 962.988 51.2563 962.988 50.2847C962.988 49.4155 962.78 48.7124 962.365 48.1753C961.955 47.6333 961.408 47.3623 960.725 47.3623C960.056 47.3623 959.516 47.6284 959.106 48.1606C958.696 48.6929 958.491 49.4546 958.491 50.4458ZM969.433 50.292C969.433 49.0762 969.721 48.0996 970.297 47.3623C970.874 46.6201 971.628 46.249 972.561 46.249C973.488 46.249 974.223 46.5664 974.765 47.2012V43.0703H976.12V54.3203H974.875L974.809 53.4707C974.267 54.1348 973.513 54.4668 972.546 54.4668C971.628 54.4668 970.878 54.0908 970.297 53.3389C969.721 52.5869 969.433 51.6055 969.433 50.3945V50.292ZM970.788 50.4458C970.788 51.3442 970.974 52.0474 971.345 52.5552C971.716 53.063 972.229 53.3169 972.883 53.3169C973.742 53.3169 974.37 52.9312 974.765 52.1597V48.5195C974.36 47.7725 973.737 47.3989 972.897 47.3989C972.233 47.3989 971.716 47.6553 971.345 48.168C970.974 48.6807 970.788 49.4399 970.788 50.4458ZM981.518 54.4668C980.444 54.4668 979.57 54.1152 978.896 53.4121C978.222 52.7041 977.885 51.7593 977.885 50.5776V50.3286C977.885 49.5425 978.034 48.8418 978.332 48.2266C978.635 47.6064 979.055 47.123 979.592 46.7764C980.134 46.4248 980.72 46.249 981.35 46.249C982.38 46.249 983.181 46.5884 983.752 47.2671C984.323 47.9458 984.609 48.9175 984.609 50.1821V50.7461H979.24C979.26 51.5273 979.487 52.1597 979.921 52.6431C980.361 53.1216 980.917 53.3608 981.591 53.3608C982.07 53.3608 982.475 53.2632 982.807 53.0679C983.139 52.8726 983.43 52.6138 983.679 52.2915L984.506 52.936C983.842 53.9565 982.846 54.4668 981.518 54.4668ZM981.35 47.3623C980.803 47.3623 980.344 47.5625 979.973 47.9629C979.602 48.3584 979.372 48.915 979.284 49.6328H983.254V49.5303C983.215 48.8418 983.029 48.3096 982.697 47.9336C982.365 47.5527 981.916 47.3623 981.35 47.3623ZM992.519 52.4819L994.482 46.3955H995.866L993.024 54.3203H991.992L989.121 46.3955H990.505L992.519 52.4819ZM998.642 54.3203H997.287V46.3955H998.642V54.3203ZM997.177 44.2935C997.177 44.0737 997.243 43.8882 997.375 43.7368C997.512 43.5854 997.712 43.5098 997.976 43.5098C998.239 43.5098 998.439 43.5854 998.576 43.7368C998.713 43.8882 998.781 44.0737 998.781 44.2935C998.781 44.5132 998.713 44.6963 998.576 44.8428C998.439 44.9893 998.239 45.0625 997.976 45.0625C997.712 45.0625 997.512 44.9893 997.375 44.8428C997.243 44.6963 997.177 44.5132 997.177 44.2935ZM1000.49 50.292C1000.49 49.0762 1000.78 48.0996 1001.35 47.3623C1001.93 46.6201 1002.68 46.249 1003.62 46.249C1004.54 46.249 1005.28 46.5664 1005.82 47.2012V43.0703H1007.17V54.3203H1005.93L1005.86 53.4707C1005.32 54.1348 1004.57 54.4668 1003.6 54.4668C1002.68 54.4668 1001.93 54.0908 1001.35 53.3389C1000.78 52.5869 1000.49 51.6055 1000.49 50.3945V50.292ZM1001.84 50.4458C1001.84 51.3442 1002.03 52.0474 1002.4 52.5552C1002.77 53.063 1003.28 53.3169 1003.94 53.3169C1004.8 53.3169 1005.42 52.9312 1005.82 52.1597V48.5195C1005.41 47.7725 1004.79 47.3989 1003.95 47.3989C1003.29 47.3989 1002.77 47.6553 1002.4 48.168C1002.03 48.6807 1001.84 49.4399 1001.84 50.4458ZM1014.18 54.3203C1014.1 54.1641 1014.04 53.8857 1013.99 53.4854C1013.36 54.1396 1012.6 54.4668 1011.73 54.4668C1010.95 54.4668 1010.31 54.2471 1009.8 53.8076C1009.31 53.3633 1009.06 52.8018 1009.06 52.123C1009.06 51.2979 1009.37 50.6582 1009.99 50.2041C1010.62 49.7451 1011.51 49.5156 1012.65 49.5156H1013.96V48.8931C1013.96 48.4194 1013.82 48.0435 1013.54 47.7651C1013.26 47.4819 1012.84 47.3403 1012.29 47.3403C1011.8 47.3403 1011.4 47.4624 1011.07 47.7065C1010.74 47.9507 1010.58 48.2461 1010.58 48.5928H1009.22C1009.22 48.1973 1009.36 47.8164 1009.64 47.4502C1009.92 47.0791 1010.3 46.7861 1010.78 46.5713C1011.26 46.3564 1011.79 46.249 1012.37 46.249C1013.28 46.249 1014 46.4785 1014.51 46.9375C1015.03 47.3916 1015.3 48.019 1015.32 48.8198V52.4673C1015.32 53.1948 1015.41 53.7734 1015.6 54.2031V54.3203H1014.18ZM1011.93 53.2876C1012.35 53.2876 1012.76 53.1777 1013.14 52.958C1013.52 52.7383 1013.79 52.4526 1013.96 52.1011V50.4751H1012.9C1011.24 50.4751 1010.41 50.9609 1010.41 51.9326C1010.41 52.3574 1010.55 52.6895 1010.84 52.9287C1011.12 53.168 1011.48 53.2876 1011.93 53.2876Z" fill="white"/>
<path opacity="0.8" d="M1046.43 54.3203H1045.02L1039.65 46.1025V54.3203H1038.24V43.6562H1039.65L1045.03 51.9106V43.6562H1046.43V54.3203ZM1048.36 50.2847C1048.36 49.5083 1048.51 48.8101 1048.81 48.1899C1049.12 47.5698 1049.55 47.0913 1050.09 46.7544C1050.64 46.4175 1051.26 46.249 1051.96 46.249C1053.04 46.249 1053.91 46.6226 1054.57 47.3696C1055.24 48.1167 1055.57 49.1104 1055.57 50.3506V50.4458C1055.57 51.2173 1055.43 51.9106 1055.13 52.5259C1054.83 53.1362 1054.41 53.6123 1053.86 53.9541C1053.31 54.2959 1052.68 54.4668 1051.97 54.4668C1050.9 54.4668 1050.02 54.0933 1049.36 53.3462C1048.69 52.5991 1048.36 51.6104 1048.36 50.3799V50.2847ZM1049.72 50.4458C1049.72 51.3247 1049.92 52.0303 1050.33 52.5625C1050.74 53.0947 1051.29 53.3608 1051.97 53.3608C1052.66 53.3608 1053.21 53.0923 1053.61 52.5552C1054.02 52.0132 1054.22 51.2563 1054.22 50.2847C1054.22 49.4155 1054.01 48.7124 1053.6 48.1753C1053.19 47.6333 1052.64 47.3623 1051.96 47.3623C1051.29 47.3623 1050.75 47.6284 1050.34 48.1606C1049.93 48.6929 1049.72 49.4546 1049.72 50.4458ZM1059.11 44.4766V46.3955H1060.59V47.4429H1059.11V52.3574C1059.11 52.6748 1059.18 52.9141 1059.31 53.0752C1059.44 53.2314 1059.67 53.3096 1059.98 53.3096C1060.14 53.3096 1060.35 53.2803 1060.63 53.2217V54.3203C1060.27 54.418 1059.92 54.4668 1059.59 54.4668C1058.98 54.4668 1058.53 54.2837 1058.22 53.9175C1057.91 53.5513 1057.76 53.0312 1057.76 52.3574V47.4429H1056.31V46.3955H1057.76V44.4766H1059.11ZM1063.65 54.3203H1062.3V46.3955H1063.65V54.3203ZM1062.19 44.2935C1062.19 44.0737 1062.25 43.8882 1062.39 43.7368C1062.52 43.5854 1062.72 43.5098 1062.99 43.5098C1063.25 43.5098 1063.45 43.5854 1063.59 43.7368C1063.72 43.8882 1063.79 44.0737 1063.79 44.2935C1063.79 44.5132 1063.72 44.6963 1063.59 44.8428C1063.45 44.9893 1063.25 45.0625 1062.99 45.0625C1062.72 45.0625 1062.52 44.9893 1062.39 44.8428C1062.25 44.6963 1062.19 44.5132 1062.19 44.2935ZM1069.01 53.3608C1069.49 53.3608 1069.91 53.2144 1070.27 52.9214C1070.64 52.6284 1070.84 52.2622 1070.87 51.8228H1072.16C1072.13 52.2769 1071.98 52.709 1071.69 53.1191C1071.4 53.5293 1071.01 53.8564 1070.53 54.1006C1070.05 54.3447 1069.54 54.4668 1069.01 54.4668C1067.93 54.4668 1067.07 54.1079 1066.43 53.3901C1065.79 52.6675 1065.48 51.6812 1065.48 50.4312V50.2041C1065.48 49.4326 1065.62 48.7466 1065.9 48.146C1066.18 47.5454 1066.59 47.0791 1067.12 46.7471C1067.65 46.415 1068.28 46.249 1069 46.249C1069.89 46.249 1070.63 46.5151 1071.21 47.0474C1071.8 47.5796 1072.12 48.2705 1072.16 49.1201H1070.87C1070.84 48.6074 1070.64 48.1875 1070.29 47.8604C1069.94 47.5283 1069.51 47.3623 1069 47.3623C1068.31 47.3623 1067.78 47.6113 1067.4 48.1094C1067.02 48.6025 1066.83 49.3179 1066.83 50.2554V50.5117C1066.83 51.4248 1067.02 52.1279 1067.4 52.6211C1067.77 53.1143 1068.31 53.3608 1069.01 53.3608ZM1075.15 54.3203H1073.8V46.3955H1075.15V54.3203ZM1073.69 44.2935C1073.69 44.0737 1073.75 43.8882 1073.88 43.7368C1074.02 43.5854 1074.22 43.5098 1074.49 43.5098C1074.75 43.5098 1074.95 43.5854 1075.09 43.7368C1075.22 43.8882 1075.29 44.0737 1075.29 44.2935C1075.29 44.5132 1075.22 44.6963 1075.09 44.8428C1074.95 44.9893 1074.75 45.0625 1074.49 45.0625C1074.22 45.0625 1074.02 44.9893 1073.88 44.8428C1073.75 44.6963 1073.69 44.5132 1073.69 44.2935ZM1082.22 54.3203C1082.14 54.1641 1082.08 53.8857 1082.03 53.4854C1081.4 54.1396 1080.65 54.4668 1079.77 54.4668C1078.99 54.4668 1078.35 54.2471 1077.85 53.8076C1077.35 53.3633 1077.1 52.8018 1077.1 52.123C1077.1 51.2979 1077.41 50.6582 1078.04 50.2041C1078.67 49.7451 1079.55 49.5156 1080.69 49.5156H1082.01V48.8931C1082.01 48.4194 1081.87 48.0435 1081.58 47.7651C1081.3 47.4819 1080.88 47.3403 1080.33 47.3403C1079.85 47.3403 1079.44 47.4624 1079.11 47.7065C1078.79 47.9507 1078.62 48.2461 1078.62 48.5928H1077.26C1077.26 48.1973 1077.4 47.8164 1077.68 47.4502C1077.96 47.0791 1078.34 46.7861 1078.82 46.5713C1079.3 46.3564 1079.83 46.249 1080.41 46.249C1081.32 46.249 1082.04 46.4785 1082.56 46.9375C1083.07 47.3916 1083.34 48.019 1083.36 48.8198V52.4673C1083.36 53.1948 1083.46 53.7734 1083.64 54.2031V54.3203H1082.22ZM1079.97 53.2876C1080.4 53.2876 1080.8 53.1777 1081.18 52.958C1081.56 52.7383 1081.84 52.4526 1082.01 52.1011V50.4751H1080.95C1079.29 50.4751 1078.46 50.9609 1078.46 51.9326C1078.46 52.3574 1078.6 52.6895 1078.88 52.9287C1079.16 53.168 1079.53 53.2876 1079.97 53.2876ZM1090.1 52.2183C1090.1 51.8521 1089.96 51.5688 1089.68 51.3687C1089.41 51.1636 1088.93 50.9878 1088.24 50.8413C1087.56 50.6948 1087.01 50.519 1086.61 50.314C1086.21 50.1089 1085.91 49.8647 1085.71 49.5815C1085.52 49.2983 1085.43 48.9614 1085.43 48.5708C1085.43 47.9214 1085.7 47.3721 1086.25 46.9229C1086.8 46.4736 1087.5 46.249 1088.36 46.249C1089.26 46.249 1089.98 46.481 1090.54 46.9448C1091.1 47.4087 1091.38 48.002 1091.38 48.7246H1090.02C1090.02 48.3535 1089.86 48.0337 1089.54 47.7651C1089.23 47.4966 1088.84 47.3623 1088.36 47.3623C1087.86 47.3623 1087.48 47.4697 1087.2 47.6846C1086.92 47.8994 1086.78 48.1802 1086.78 48.5269C1086.78 48.854 1086.91 49.1006 1087.17 49.2666C1087.43 49.4326 1087.9 49.5913 1088.57 49.7427C1089.25 49.894 1089.8 50.0747 1090.22 50.2847C1090.64 50.4946 1090.95 50.7485 1091.15 51.0464C1091.35 51.3394 1091.46 51.6982 1091.46 52.123C1091.46 52.8311 1091.17 53.3999 1090.61 53.8296C1090.04 54.2544 1089.3 54.4668 1088.4 54.4668C1087.77 54.4668 1087.21 54.3545 1086.72 54.1299C1086.23 53.9053 1085.85 53.5928 1085.57 53.1924C1085.29 52.7871 1085.16 52.3501 1085.16 51.8813H1086.51C1086.54 52.3354 1086.72 52.6968 1087.05 52.9653C1087.4 53.229 1087.84 53.3608 1088.4 53.3608C1088.91 53.3608 1089.32 53.2583 1089.63 53.0532C1089.94 52.8433 1090.1 52.5649 1090.1 52.2183ZM1096.61 50.292C1096.61 49.0762 1096.9 48.0996 1097.48 47.3623C1098.05 46.6201 1098.81 46.249 1099.74 46.249C1100.67 46.249 1101.4 46.5664 1101.94 47.2012V43.0703H1103.3V54.3203H1102.05L1101.99 53.4707C1101.45 54.1348 1100.69 54.4668 1099.72 54.4668C1098.81 54.4668 1098.06 54.0908 1097.48 53.3389C1096.9 52.5869 1096.61 51.6055 1096.61 50.3945V50.292ZM1097.97 50.4458C1097.97 51.3442 1098.15 52.0474 1098.52 52.5552C1098.89 53.063 1099.41 53.3169 1100.06 53.3169C1100.92 53.3169 1101.55 52.9312 1101.94 52.1597V48.5195C1101.54 47.7725 1100.92 47.3989 1100.08 47.3989C1099.41 47.3989 1098.89 47.6553 1098.52 48.168C1098.15 48.6807 1097.97 49.4399 1097.97 50.4458ZM1108.7 54.4668C1107.62 54.4668 1106.75 54.1152 1106.07 53.4121C1105.4 52.7041 1105.06 51.7593 1105.06 50.5776V50.3286C1105.06 49.5425 1105.21 48.8418 1105.51 48.2266C1105.81 47.6064 1106.23 47.123 1106.77 46.7764C1107.31 46.4248 1107.9 46.249 1108.53 46.249C1109.56 46.249 1110.36 46.5884 1110.93 47.2671C1111.5 47.9458 1111.79 48.9175 1111.79 50.1821V50.7461H1106.42C1106.44 51.5273 1106.67 52.1597 1107.1 52.6431C1107.54 53.1216 1108.1 53.3608 1108.77 53.3608C1109.25 53.3608 1109.65 53.2632 1109.99 53.0679C1110.32 52.8726 1110.61 52.6138 1110.86 52.2915L1111.69 52.936C1111.02 53.9565 1110.02 54.4668 1108.7 54.4668ZM1108.53 47.3623C1107.98 47.3623 1107.52 47.5625 1107.15 47.9629C1106.78 48.3584 1106.55 48.915 1106.46 49.6328H1110.43V49.5303C1110.39 48.8418 1110.21 48.3096 1109.88 47.9336C1109.54 47.5527 1109.09 47.3623 1108.53 47.3623ZM1124.8 43.6562V50.9072C1124.8 51.9131 1124.48 52.7358 1123.85 53.3755C1123.23 54.0151 1122.38 54.374 1121.3 54.4521L1120.93 54.4668C1119.76 54.4668 1118.83 54.1519 1118.14 53.522C1117.44 52.8921 1117.09 52.0254 1117.08 50.9219V43.6562H1118.47V50.8779C1118.47 51.6494 1118.69 52.25 1119.11 52.6797C1119.54 53.1045 1120.14 53.3169 1120.93 53.3169C1121.72 53.3169 1122.33 53.1045 1122.75 52.6797C1123.18 52.2549 1123.39 51.6567 1123.39 50.8853V43.6562H1124.8ZM1121.61 40.7998H1123.25L1121.29 42.9531H1120.2L1121.61 40.7998ZM1128.28 54.3203H1126.93V43.0703H1128.28V54.3203ZM1132.3 44.4766V46.3955H1133.77V47.4429H1132.3V52.3574C1132.3 52.6748 1132.36 52.9141 1132.49 53.0752C1132.62 53.2314 1132.85 53.3096 1133.17 53.3096C1133.32 53.3096 1133.54 53.2803 1133.81 53.2217V54.3203C1133.46 54.418 1133.11 54.4668 1132.77 54.4668C1132.17 54.4668 1131.71 54.2837 1131.4 53.9175C1131.09 53.5513 1130.94 53.0312 1130.94 52.3574V47.4429H1129.5V46.3955H1130.94V44.4766H1132.3ZM1136.84 54.3203H1135.48V46.3955H1136.84V54.3203ZM1135.37 44.2935C1135.37 44.0737 1135.44 43.8882 1135.57 43.7368C1135.71 43.5854 1135.91 43.5098 1136.17 43.5098C1136.43 43.5098 1136.63 43.5854 1136.77 43.7368C1136.91 43.8882 1136.98 44.0737 1136.98 44.2935C1136.98 44.5132 1136.91 44.6963 1136.77 44.8428C1136.63 44.9893 1136.43 45.0625 1136.17 45.0625C1135.91 45.0625 1135.71 44.9893 1135.57 44.8428C1135.44 44.6963 1135.37 44.5132 1135.37 44.2935ZM1140.29 46.3955L1140.32 47.2744C1140.9 46.5908 1141.69 46.249 1142.67 46.249C1143.78 46.249 1144.54 46.6738 1144.94 47.5234C1145.2 47.1426 1145.54 46.835 1145.96 46.6006C1146.39 46.3662 1146.89 46.249 1147.46 46.249C1149.2 46.249 1150.09 47.1694 1150.12 49.0103V54.3203H1148.76V49.0908C1148.76 48.5244 1148.63 48.1021 1148.37 47.8237C1148.11 47.5405 1147.68 47.3989 1147.07 47.3989C1146.57 47.3989 1146.15 47.5503 1145.82 47.853C1145.48 48.1509 1145.29 48.5537 1145.24 49.0615V54.3203H1143.88V49.1274C1143.88 47.9751 1143.31 47.3989 1142.18 47.3989C1141.29 47.3989 1140.69 47.7773 1140.36 48.5342V54.3203H1139V46.3955H1140.29ZM1157.06 54.3203C1156.98 54.1641 1156.92 53.8857 1156.87 53.4854C1156.24 54.1396 1155.49 54.4668 1154.61 54.4668C1153.83 54.4668 1153.19 54.2471 1152.69 53.8076C1152.19 53.3633 1151.94 52.8018 1151.94 52.123C1151.94 51.2979 1152.25 50.6582 1152.88 50.2041C1153.51 49.7451 1154.39 49.5156 1155.53 49.5156H1156.85V48.8931C1156.85 48.4194 1156.7 48.0435 1156.42 47.7651C1156.14 47.4819 1155.72 47.3403 1155.17 47.3403C1154.69 47.3403 1154.28 47.4624 1153.95 47.7065C1153.63 47.9507 1153.46 48.2461 1153.46 48.5928H1152.1C1152.1 48.1973 1152.24 47.8164 1152.52 47.4502C1152.8 47.0791 1153.18 46.7861 1153.66 46.5713C1154.14 46.3564 1154.67 46.249 1155.25 46.249C1156.16 46.249 1156.88 46.4785 1157.4 46.9375C1157.91 47.3916 1158.18 48.019 1158.2 48.8198V52.4673C1158.2 53.1948 1158.29 53.7734 1158.48 54.2031V54.3203H1157.06ZM1154.81 53.2876C1155.23 53.2876 1155.64 53.1777 1156.02 52.958C1156.4 52.7383 1156.68 52.4526 1156.85 52.1011V50.4751H1155.78C1154.12 50.4751 1153.29 50.9609 1153.29 51.9326C1153.29 52.3574 1153.44 52.6895 1153.72 52.9287C1154 53.168 1154.37 53.2876 1154.81 53.2876ZM1172.45 54.3203H1171.04V49.3911H1165.66V54.3203H1164.26V43.6562H1165.66V48.2412H1171.04V43.6562H1172.45V54.3203ZM1174.38 50.2847C1174.38 49.5083 1174.53 48.8101 1174.83 48.1899C1175.14 47.5698 1175.57 47.0913 1176.11 46.7544C1176.66 46.4175 1177.28 46.249 1177.98 46.249C1179.06 46.249 1179.93 46.6226 1180.59 47.3696C1181.26 48.1167 1181.59 49.1104 1181.59 50.3506V50.4458C1181.59 51.2173 1181.45 51.9106 1181.15 52.5259C1180.85 53.1362 1180.43 53.6123 1179.88 53.9541C1179.33 54.2959 1178.7 54.4668 1177.99 54.4668C1176.92 54.4668 1176.05 54.0933 1175.38 53.3462C1174.71 52.5991 1174.38 51.6104 1174.38 50.3799V50.2847ZM1175.74 50.4458C1175.74 51.3247 1175.95 52.0303 1176.35 52.5625C1176.76 53.0947 1177.31 53.3608 1177.99 53.3608C1178.68 53.3608 1179.23 53.0923 1179.63 52.5552C1180.04 52.0132 1180.24 51.2563 1180.24 50.2847C1180.24 49.4155 1180.03 48.7124 1179.62 48.1753C1179.21 47.6333 1178.66 47.3623 1177.98 47.3623C1177.31 47.3623 1176.77 47.6284 1176.36 48.1606C1175.95 48.6929 1175.74 49.4546 1175.74 50.4458ZM1187.12 47.6113C1186.92 47.5771 1186.7 47.5601 1186.46 47.5601C1185.57 47.5601 1184.97 47.9385 1184.65 48.6953V54.3203H1183.29V46.3955H1184.61L1184.63 47.311C1185.08 46.603 1185.71 46.249 1186.52 46.249C1186.79 46.249 1186.99 46.2832 1187.12 46.3516V47.6113ZM1192.98 54.3203C1192.9 54.1641 1192.83 53.8857 1192.79 53.4854C1192.16 54.1396 1191.4 54.4668 1190.53 54.4668C1189.75 54.4668 1189.11 54.2471 1188.6 53.8076C1188.11 53.3633 1187.86 52.8018 1187.86 52.123C1187.86 51.2979 1188.17 50.6582 1188.79 50.2041C1189.42 49.7451 1190.31 49.5156 1191.45 49.5156H1192.76V48.8931C1192.76 48.4194 1192.62 48.0435 1192.34 47.7651C1192.06 47.4819 1191.64 47.3403 1191.09 47.3403C1190.6 47.3403 1190.2 47.4624 1189.87 47.7065C1189.54 47.9507 1189.38 48.2461 1189.38 48.5928H1188.02C1188.02 48.1973 1188.16 47.8164 1188.44 47.4502C1188.72 47.0791 1189.1 46.7861 1189.58 46.5713C1190.06 46.3564 1190.59 46.249 1191.17 46.249C1192.08 46.249 1192.8 46.4785 1193.31 46.9375C1193.83 47.3916 1194.1 48.019 1194.12 48.8198V52.4673C1194.12 53.1948 1194.21 53.7734 1194.4 54.2031V54.3203H1192.98ZM1190.73 53.2876C1191.15 53.2876 1191.56 53.1777 1191.94 52.958C1192.32 52.7383 1192.59 52.4526 1192.76 52.1011V50.4751H1191.7C1190.04 50.4751 1189.21 50.9609 1189.21 51.9326C1189.21 52.3574 1189.35 52.6895 1189.64 52.9287C1189.92 53.168 1190.28 53.2876 1190.73 53.2876Z" fill="white"/>
<path d="M250.312 47.9688H242.828L241.938 50.0312C241.646 50.7188 241.5 51.2865 241.5 51.7344C241.5 52.3281 241.74 52.7656 242.219 53.0469C242.5 53.2135 243.193 53.3385 244.297 53.4219V54H237.25V53.4219C238.01 53.3073 238.635 52.9948 239.125 52.4844C239.615 51.9635 240.219 50.8958 240.938 49.2812L248.516 32.375H248.812L256.453 49.75C257.182 51.3958 257.781 52.4323 258.25 52.8594C258.604 53.1823 259.104 53.3698 259.75 53.4219V54H249.5V53.4219H249.922C250.745 53.4219 251.323 53.3073 251.656 53.0781C251.885 52.9115 252 52.6719 252 52.3594C252 52.1719 251.969 51.9792 251.906 51.7812C251.885 51.6875 251.729 51.2969 251.438 50.6094L250.312 47.9688ZM249.781 46.8125L246.625 39.5156L243.375 46.8125H249.781ZM267.266 39.3906V41.3125C268.068 40.4375 268.807 39.8281 269.484 39.4844C270.172 39.1302 270.922 38.9531 271.734 38.9531C272.672 38.9531 273.458 39.1719 274.094 39.6094C274.729 40.0469 275.219 40.7135 275.562 41.6094C276.396 40.6719 277.193 39.9948 277.953 39.5781C278.724 39.1615 279.526 38.9531 280.359 38.9531C281.37 38.9531 282.172 39.1875 282.766 39.6562C283.37 40.1146 283.786 40.7031 284.016 41.4219C284.255 42.1302 284.375 43.2656 284.375 44.8281V50.8125C284.375 51.9375 284.474 52.6354 284.672 52.9062C284.88 53.1771 285.307 53.3542 285.953 53.4375V54H278.406V53.4375C279 53.3854 279.438 53.1562 279.719 52.75C279.906 52.4688 280 51.8229 280 50.8125V44.5312C280 43.2292 279.948 42.401 279.844 42.0469C279.74 41.6927 279.573 41.4323 279.344 41.2656C279.125 41.0885 278.865 41 278.562 41C278.115 41 277.661 41.1667 277.203 41.5C276.745 41.8229 276.281 42.3125 275.812 42.9688V50.8125C275.812 51.8646 275.901 52.526 276.078 52.7969C276.318 53.1823 276.776 53.3958 277.453 53.4375V54H269.891V53.4375C270.297 53.4167 270.615 53.3177 270.844 53.1406C271.083 52.9531 271.24 52.7344 271.312 52.4844C271.396 52.224 271.438 51.6667 271.438 50.8125V44.5312C271.438 43.2083 271.385 42.3802 271.281 42.0469C271.177 41.7135 271 41.4531 270.75 41.2656C270.51 41.0781 270.25 40.9844 269.969 40.9844C269.552 40.9844 269.172 41.0938 268.828 41.3125C268.339 41.6354 267.818 42.1875 267.266 42.9688V50.8125C267.266 51.8438 267.365 52.526 267.562 52.8594C267.771 53.1823 268.198 53.375 268.844 53.4375V54H261.312V53.4375C261.927 53.375 262.365 53.1771 262.625 52.8438C262.802 52.6146 262.891 51.9375 262.891 50.8125V42.5625C262.891 41.4583 262.786 40.7708 262.578 40.5C262.38 40.2292 261.958 40.0521 261.312 39.9688V39.3906H267.266ZM300.234 46.1719H292.219C292.312 48.1094 292.828 49.6406 293.766 50.7656C294.484 51.6302 295.349 52.0625 296.359 52.0625C296.984 52.0625 297.552 51.8906 298.062 51.5469C298.573 51.1927 299.12 50.5625 299.703 49.6562L300.234 50C299.443 51.6146 298.568 52.7604 297.609 53.4375C296.651 54.1042 295.542 54.4375 294.281 54.4375C292.115 54.4375 290.474 53.6042 289.359 51.9375C288.464 50.5938 288.016 48.9271 288.016 46.9375C288.016 44.5 288.672 42.5625 289.984 41.125C291.307 39.6771 292.854 38.9531 294.625 38.9531C296.104 38.9531 297.385 39.5625 298.469 40.7812C299.562 41.9896 300.151 43.7865 300.234 46.1719ZM296.391 45.125C296.391 43.4479 296.297 42.2969 296.109 41.6719C295.932 41.0469 295.651 40.5729 295.266 40.25C295.047 40.0625 294.755 39.9688 294.391 39.9688C293.849 39.9688 293.406 40.2344 293.062 40.7656C292.448 41.6927 292.141 42.9635 292.141 44.5781V45.125H296.391ZM298.688 32.0938L293.516 37.5156H292.172L293.984 32.0938H298.688ZM308.141 39.3906V42.7031C309.109 41.1927 309.958 40.1927 310.688 39.7031C311.417 39.2031 312.12 38.9531 312.797 38.9531C313.38 38.9531 313.844 39.1354 314.188 39.5C314.542 39.8542 314.719 40.3594 314.719 41.0156C314.719 41.7135 314.547 42.2552 314.203 42.6406C313.87 43.026 313.464 43.2188 312.984 43.2188C312.432 43.2188 311.953 43.0417 311.547 42.6875C311.141 42.3333 310.901 42.1354 310.828 42.0938C310.724 42.0312 310.604 42 310.469 42C310.167 42 309.88 42.1146 309.609 42.3438C309.182 42.6979 308.859 43.2031 308.641 43.8594C308.307 44.8698 308.141 45.9844 308.141 47.2031V50.5625L308.156 51.4375C308.156 52.0312 308.193 52.4115 308.266 52.5781C308.391 52.8594 308.573 53.0677 308.812 53.2031C309.062 53.3281 309.479 53.4062 310.062 53.4375V54H302.172V53.4375C302.807 53.3854 303.234 53.2135 303.453 52.9219C303.682 52.6198 303.797 51.8333 303.797 50.5625V42.4844C303.797 41.651 303.755 41.1198 303.672 40.8906C303.568 40.599 303.417 40.3854 303.219 40.25C303.021 40.1146 302.672 40.0208 302.172 39.9688V39.3906H308.141ZM319.812 32.3125C320.49 32.3125 321.062 32.5521 321.531 33.0312C322 33.5 322.234 34.0677 322.234 34.7344C322.234 35.401 321.995 35.9688 321.516 36.4375C321.047 36.9062 320.479 37.1406 319.812 37.1406C319.146 37.1406 318.578 36.9062 318.109 36.4375C317.641 35.9688 317.406 35.401 317.406 34.7344C317.406 34.0677 317.641 33.5 318.109 33.0312C318.578 32.5521 319.146 32.3125 319.812 32.3125ZM322 39.3906V50.9688C322 52 322.12 52.6615 322.359 52.9531C322.599 53.2344 323.068 53.3958 323.766 53.4375V54H315.875V53.4375C316.521 53.4167 317 53.2292 317.312 52.875C317.521 52.6354 317.625 52 317.625 50.9688V42.4375C317.625 41.4062 317.505 40.75 317.266 40.4688C317.026 40.1771 316.562 40.0104 315.875 39.9688V39.3906H322ZM337.125 50.2344L337.609 50.6094C336.922 51.901 336.062 52.8646 335.031 53.5C334.01 54.125 332.922 54.4375 331.766 54.4375C329.818 54.4375 328.26 53.7031 327.094 52.2344C325.927 50.7656 325.344 49 325.344 46.9375C325.344 44.9479 325.875 43.1979 326.938 41.6875C328.219 39.8646 329.984 38.9531 332.234 38.9531C333.745 38.9531 334.943 39.3333 335.828 40.0938C336.724 40.8542 337.172 41.7031 337.172 42.6406C337.172 43.2344 336.99 43.7083 336.625 44.0625C336.271 44.4167 335.802 44.5938 335.219 44.5938C334.604 44.5938 334.094 44.3906 333.688 43.9844C333.292 43.5781 333.047 42.8542 332.953 41.8125C332.891 41.1562 332.74 40.6979 332.5 40.4375C332.26 40.1771 331.979 40.0469 331.656 40.0469C331.156 40.0469 330.729 40.3125 330.375 40.8438C329.833 41.6458 329.562 42.875 329.562 44.5312C329.562 45.9062 329.781 47.224 330.219 48.4844C330.656 49.7344 331.255 50.6667 332.016 51.2812C332.589 51.7292 333.266 51.9531 334.047 51.9531C334.557 51.9531 335.042 51.8333 335.5 51.5938C335.958 51.3542 336.5 50.901 337.125 50.2344ZM347.484 51.8438C345.703 53.4167 344.104 54.2031 342.688 54.2031C341.854 54.2031 341.161 53.9323 340.609 53.3906C340.057 52.8385 339.781 52.151 339.781 51.3281C339.781 50.2135 340.26 49.2135 341.219 48.3281C342.177 47.4323 344.266 46.2448 347.484 44.7656V43.2969C347.484 42.1927 347.422 41.5 347.297 41.2188C347.182 40.9271 346.958 40.6771 346.625 40.4688C346.292 40.25 345.917 40.1406 345.5 40.1406C344.823 40.1406 344.266 40.2917 343.828 40.5938C343.557 40.7812 343.422 41 343.422 41.25C343.422 41.4688 343.568 41.7396 343.859 42.0625C344.255 42.5104 344.453 42.9427 344.453 43.3594C344.453 43.8698 344.26 44.3073 343.875 44.6719C343.5 45.026 343.005 45.2031 342.391 45.2031C341.734 45.2031 341.182 45.0052 340.734 44.6094C340.297 44.2135 340.078 43.75 340.078 43.2188C340.078 42.4688 340.375 41.7552 340.969 41.0781C341.562 40.3906 342.391 39.8646 343.453 39.5C344.516 39.1354 345.62 38.9531 346.766 38.9531C348.151 38.9531 349.245 39.25 350.047 39.8438C350.859 40.4271 351.385 41.0625 351.625 41.75C351.771 42.1875 351.844 43.1927 351.844 44.7656V50.4375C351.844 51.1042 351.87 51.526 351.922 51.7031C351.974 51.8698 352.052 51.9948 352.156 52.0781C352.26 52.1615 352.38 52.2031 352.516 52.2031C352.786 52.2031 353.062 52.0104 353.344 51.625L353.812 52C353.292 52.7708 352.75 53.3333 352.188 53.6875C351.635 54.0312 351.005 54.2031 350.297 54.2031C349.464 54.2031 348.812 54.0104 348.344 53.625C347.875 53.2292 347.589 52.6354 347.484 51.8438ZM347.484 50.7031V45.8125C346.224 46.5521 345.286 47.3438 344.672 48.1875C344.266 48.75 344.062 49.3177 344.062 49.8906C344.062 50.3698 344.234 50.7917 344.578 51.1562C344.839 51.4375 345.203 51.5781 345.672 51.5781C346.193 51.5781 346.797 51.2865 347.484 50.7031ZM382.547 46.5625L381.75 54H362.938V53.4219H363.641C364.255 53.4219 364.75 53.3125 365.125 53.0938C365.396 52.9479 365.604 52.6979 365.75 52.3438C365.865 52.0938 365.922 51.4375 365.922 50.375V36.4375C365.922 35.3542 365.865 34.6771 365.75 34.4062C365.635 34.1354 365.401 33.901 365.047 33.7031C364.703 33.4948 364.234 33.3906 363.641 33.3906H362.938V32.8125H374.234V33.3906H373.312C372.698 33.3906 372.203 33.5 371.828 33.7188C371.557 33.8646 371.344 34.1146 371.188 34.4688C371.073 34.7188 371.016 35.375 371.016 36.4375V49.9375C371.016 51.0208 371.078 51.7135 371.203 52.0156C371.328 52.3073 371.573 52.526 371.938 52.6719C372.198 52.7656 372.828 52.8125 373.828 52.8125H375.594C376.719 52.8125 377.656 52.6146 378.406 52.2188C379.156 51.8229 379.802 51.1979 380.344 50.3438C380.896 49.4896 381.417 48.2292 381.906 46.5625H382.547ZM392.828 51.8438C391.047 53.4167 389.448 54.2031 388.031 54.2031C387.198 54.2031 386.505 53.9323 385.953 53.3906C385.401 52.8385 385.125 52.151 385.125 51.3281C385.125 50.2135 385.604 49.2135 386.562 48.3281C387.521 47.4323 389.609 46.2448 392.828 44.7656V43.2969C392.828 42.1927 392.766 41.5 392.641 41.2188C392.526 40.9271 392.302 40.6771 391.969 40.4688C391.635 40.25 391.26 40.1406 390.844 40.1406C390.167 40.1406 389.609 40.2917 389.172 40.5938C388.901 40.7812 388.766 41 388.766 41.25C388.766 41.4688 388.911 41.7396 389.203 42.0625C389.599 42.5104 389.797 42.9427 389.797 43.3594C389.797 43.8698 389.604 44.3073 389.219 44.6719C388.844 45.026 388.349 45.2031 387.734 45.2031C387.078 45.2031 386.526 45.0052 386.078 44.6094C385.641 44.2135 385.422 43.75 385.422 43.2188C385.422 42.4688 385.719 41.7552 386.312 41.0781C386.906 40.3906 387.734 39.8646 388.797 39.5C389.859 39.1354 390.964 38.9531 392.109 38.9531C393.495 38.9531 394.589 39.25 395.391 39.8438C396.203 40.4271 396.729 41.0625 396.969 41.75C397.115 42.1875 397.188 43.1927 397.188 44.7656V50.4375C397.188 51.1042 397.214 51.526 397.266 51.7031C397.318 51.8698 397.396 51.9948 397.5 52.0781C397.604 52.1615 397.724 52.2031 397.859 52.2031C398.13 52.2031 398.406 52.0104 398.688 51.625L399.156 52C398.635 52.7708 398.094 53.3333 397.531 53.6875C396.979 54.0312 396.349 54.2031 395.641 54.2031C394.807 54.2031 394.156 54.0104 393.688 53.625C393.219 53.2292 392.932 52.6354 392.828 51.8438ZM392.828 50.7031V45.8125C391.568 46.5521 390.63 47.3438 390.016 48.1875C389.609 48.75 389.406 49.3177 389.406 49.8906C389.406 50.3698 389.578 50.7917 389.922 51.1562C390.182 51.4375 390.547 51.5781 391.016 51.5781C391.536 51.5781 392.141 51.2865 392.828 50.7031ZM406.562 34.0469V39.3906H410.031V40.9375H406.562V49.9531C406.562 50.7969 406.599 51.3438 406.672 51.5938C406.755 51.8333 406.896 52.0312 407.094 52.1875C407.292 52.3333 407.474 52.4062 407.641 52.4062C408.318 52.4062 408.958 51.8906 409.562 50.8594L410.031 51.2031C409.188 53.2031 407.818 54.2031 405.922 54.2031C404.995 54.2031 404.208 53.9479 403.562 53.4375C402.927 52.9167 402.521 52.3385 402.344 51.7031C402.24 51.349 402.188 50.3906 402.188 48.8281V40.9375H400.281V40.3906C401.594 39.4635 402.708 38.4896 403.625 37.4688C404.552 36.4479 405.359 35.3073 406.047 34.0469H406.562ZM414.938 32.3125C415.615 32.3125 416.188 32.5521 416.656 33.0312C417.125 33.5 417.359 34.0677 417.359 34.7344C417.359 35.401 417.12 35.9688 416.641 36.4375C416.172 36.9062 415.604 37.1406 414.938 37.1406C414.271 37.1406 413.703 36.9062 413.234 36.4375C412.766 35.9688 412.531 35.401 412.531 34.7344C412.531 34.0677 412.766 33.5 413.234 33.0312C413.703 32.5521 414.271 32.3125 414.938 32.3125ZM417.125 39.3906V50.9688C417.125 52 417.245 52.6615 417.484 52.9531C417.724 53.2344 418.193 53.3958 418.891 53.4375V54H411V53.4375C411.646 53.4167 412.125 53.2292 412.438 52.875C412.646 52.6354 412.75 52 412.75 50.9688V42.4375C412.75 41.4062 412.63 40.75 412.391 40.4688C412.151 40.1771 411.688 40.0104 411 39.9688V39.3906H417.125ZM426.297 39.3906V41.2812C427.047 40.4688 427.766 39.8802 428.453 39.5156C429.141 39.1406 429.88 38.9531 430.672 38.9531C431.62 38.9531 432.406 39.2188 433.031 39.75C433.656 40.2708 434.073 40.9219 434.281 41.7031C434.448 42.2969 434.531 43.4375 434.531 45.125V50.8125C434.531 51.9375 434.63 52.6406 434.828 52.9219C435.036 53.1927 435.464 53.3646 436.109 53.4375V54H428.719V53.4375C429.271 53.3646 429.667 53.1354 429.906 52.75C430.073 52.4896 430.156 51.8438 430.156 50.8125V44.3125C430.156 43.1146 430.109 42.3594 430.016 42.0469C429.922 41.7344 429.76 41.4948 429.531 41.3281C429.312 41.151 429.068 41.0625 428.797 41.0625C427.901 41.0625 427.068 41.7031 426.297 42.9844V50.8125C426.297 51.9062 426.396 52.599 426.594 52.8906C426.802 53.1823 427.182 53.3646 427.734 53.4375V54H420.344V53.4375C420.958 53.375 421.396 53.1771 421.656 52.8438C421.833 52.6146 421.922 51.9375 421.922 50.8125V42.5625C421.922 41.4583 421.818 40.7708 421.609 40.5C421.411 40.2292 420.99 40.0521 420.344 39.9688V39.3906H426.297ZM446.203 51.8438C444.422 53.4167 442.823 54.2031 441.406 54.2031C440.573 54.2031 439.88 53.9323 439.328 53.3906C438.776 52.8385 438.5 52.151 438.5 51.3281C438.5 50.2135 438.979 49.2135 439.938 48.3281C440.896 47.4323 442.984 46.2448 446.203 44.7656V43.2969C446.203 42.1927 446.141 41.5 446.016 41.2188C445.901 40.9271 445.677 40.6771 445.344 40.4688C445.01 40.25 444.635 40.1406 444.219 40.1406C443.542 40.1406 442.984 40.2917 442.547 40.5938C442.276 40.7812 442.141 41 442.141 41.25C442.141 41.4688 442.286 41.7396 442.578 42.0625C442.974 42.5104 443.172 42.9427 443.172 43.3594C443.172 43.8698 442.979 44.3073 442.594 44.6719C442.219 45.026 441.724 45.2031 441.109 45.2031C440.453 45.2031 439.901 45.0052 439.453 44.6094C439.016 44.2135 438.797 43.75 438.797 43.2188C438.797 42.4688 439.094 41.7552 439.688 41.0781C440.281 40.3906 441.109 39.8646 442.172 39.5C443.234 39.1354 444.339 38.9531 445.484 38.9531C446.87 38.9531 447.964 39.25 448.766 39.8438C449.578 40.4271 450.104 41.0625 450.344 41.75C450.49 42.1875 450.562 43.1927 450.562 44.7656V50.4375C450.562 51.1042 450.589 51.526 450.641 51.7031C450.693 51.8698 450.771 51.9948 450.875 52.0781C450.979 52.1615 451.099 52.2031 451.234 52.2031C451.505 52.2031 451.781 52.0104 452.062 51.625L452.531 52C452.01 52.7708 451.469 53.3333 450.906 53.6875C450.354 54.0312 449.724 54.2031 449.016 54.2031C448.182 54.2031 447.531 54.0104 447.062 53.625C446.594 53.2292 446.307 52.6354 446.203 51.8438ZM446.203 50.7031V45.8125C444.943 46.5521 444.005 47.3438 443.391 48.1875C442.984 48.75 442.781 49.3177 442.781 49.8906C442.781 50.3698 442.953 50.7917 443.297 51.1562C443.557 51.4375 443.922 51.5781 444.391 51.5781C444.911 51.5781 445.516 51.2865 446.203 50.7031Z" fill="white"/>
<rect width="154" height="28" transform="translate(268 86)" fill="#FF0000"/>
<path d="M290.059 105H288.645L283.276 96.7822V105H281.863V94.3359H283.276L288.66 102.59V94.3359H290.059V105ZM291.985 100.964C291.985 100.188 292.136 99.4897 292.439 98.8696C292.747 98.2495 293.171 97.771 293.713 97.4341C294.26 97.0972 294.883 96.9287 295.581 96.9287C296.66 96.9287 297.532 97.3022 298.196 98.0493C298.865 98.7964 299.199 99.79 299.199 101.03V101.125C299.199 101.897 299.05 102.59 298.752 103.206C298.459 103.816 298.037 104.292 297.485 104.634C296.938 104.976 296.309 105.146 295.596 105.146C294.521 105.146 293.65 104.773 292.981 104.026C292.317 103.279 291.985 102.29 291.985 101.06V100.964ZM293.347 101.125C293.347 102.004 293.55 102.71 293.955 103.242C294.365 103.774 294.912 104.041 295.596 104.041C296.284 104.041 296.831 103.772 297.236 103.235C297.642 102.693 297.844 101.936 297.844 100.964C297.844 100.095 297.637 99.3921 297.222 98.855C296.812 98.313 296.265 98.042 295.581 98.042C294.912 98.042 294.373 98.3081 293.962 98.8403C293.552 99.3726 293.347 100.134 293.347 101.125ZM302.737 95.1562V97.0752H304.216V98.1226H302.737V103.037C302.737 103.354 302.803 103.594 302.935 103.755C303.066 103.911 303.291 103.989 303.608 103.989C303.765 103.989 303.979 103.96 304.253 103.901V105C303.896 105.098 303.55 105.146 303.213 105.146C302.607 105.146 302.151 104.963 301.843 104.597C301.536 104.231 301.382 103.711 301.382 103.037V98.1226H299.939V97.0752H301.382V95.1562H302.737ZM307.278 105H305.923V97.0752H307.278V105ZM305.813 94.9731C305.813 94.7534 305.879 94.5679 306.011 94.4165C306.147 94.2651 306.348 94.1895 306.611 94.1895C306.875 94.1895 307.075 94.2651 307.212 94.4165C307.349 94.5679 307.417 94.7534 307.417 94.9731C307.417 95.1929 307.349 95.376 307.212 95.5225C307.075 95.6689 306.875 95.7422 306.611 95.7422C306.348 95.7422 306.147 95.6689 306.011 95.5225C305.879 95.376 305.813 95.1929 305.813 94.9731ZM312.632 104.041C313.115 104.041 313.538 103.894 313.899 103.601C314.26 103.308 314.46 102.942 314.5 102.502H315.781C315.757 102.957 315.601 103.389 315.312 103.799C315.024 104.209 314.639 104.536 314.155 104.78C313.677 105.024 313.169 105.146 312.632 105.146C311.553 105.146 310.693 104.788 310.054 104.07C309.419 103.347 309.102 102.361 309.102 101.111V100.884C309.102 100.112 309.243 99.4263 309.526 98.8257C309.81 98.2251 310.215 97.7588 310.742 97.4268C311.274 97.0947 311.902 96.9287 312.625 96.9287C313.513 96.9287 314.25 97.1948 314.836 97.7271C315.427 98.2593 315.742 98.9502 315.781 99.7998H314.5C314.46 99.2871 314.265 98.8672 313.914 98.54C313.567 98.208 313.137 98.042 312.625 98.042C311.936 98.042 311.401 98.291 311.021 98.7891C310.645 99.2822 310.457 99.9976 310.457 100.935V101.191C310.457 102.104 310.645 102.808 311.021 103.301C311.396 103.794 311.934 104.041 312.632 104.041ZM318.777 105H317.422V97.0752H318.777V105ZM317.312 94.9731C317.312 94.7534 317.378 94.5679 317.51 94.4165C317.646 94.2651 317.847 94.1895 318.11 94.1895C318.374 94.1895 318.574 94.2651 318.711 94.4165C318.848 94.5679 318.916 94.7534 318.916 94.9731C318.916 95.1929 318.848 95.376 318.711 95.5225C318.574 95.6689 318.374 95.7422 318.11 95.7422C317.847 95.7422 317.646 95.6689 317.51 95.5225C317.378 95.376 317.312 95.1929 317.312 94.9731ZM325.845 105C325.767 104.844 325.703 104.565 325.654 104.165C325.024 104.819 324.272 105.146 323.398 105.146C322.617 105.146 321.975 104.927 321.472 104.487C320.974 104.043 320.725 103.481 320.725 102.803C320.725 101.978 321.038 101.338 321.663 100.884C322.292 100.425 323.176 100.195 324.314 100.195H325.632V99.5728C325.632 99.0991 325.491 98.7231 325.208 98.4448C324.924 98.1616 324.507 98.02 323.955 98.02C323.472 98.02 323.066 98.1421 322.739 98.3862C322.412 98.6304 322.249 98.9258 322.249 99.2725H320.886C320.886 98.877 321.025 98.4961 321.304 98.1299C321.587 97.7588 321.968 97.4658 322.446 97.251C322.93 97.0361 323.459 96.9287 324.036 96.9287C324.949 96.9287 325.664 97.1582 326.182 97.6172C326.699 98.0713 326.968 98.6987 326.987 99.4995V103.147C326.987 103.875 327.08 104.453 327.266 104.883V105H325.845ZM323.596 103.967C324.021 103.967 324.424 103.857 324.805 103.638C325.186 103.418 325.461 103.132 325.632 102.781V101.155H324.57C322.91 101.155 322.08 101.641 322.08 102.612C322.08 103.037 322.222 103.369 322.505 103.608C322.788 103.848 323.152 103.967 323.596 103.967ZM333.726 102.898C333.726 102.532 333.586 102.249 333.308 102.048C333.035 101.843 332.554 101.667 331.865 101.521C331.182 101.375 330.637 101.199 330.232 100.994C329.832 100.789 329.534 100.544 329.338 100.261C329.148 99.978 329.053 99.6411 329.053 99.2505C329.053 98.6011 329.326 98.0518 329.873 97.6025C330.425 97.1533 331.128 96.9287 331.982 96.9287C332.881 96.9287 333.608 97.1606 334.165 97.6245C334.727 98.0884 335.007 98.6816 335.007 99.4043H333.645C333.645 99.0332 333.486 98.7134 333.169 98.4448C332.856 98.1763 332.461 98.042 331.982 98.042C331.489 98.042 331.104 98.1494 330.825 98.3643C330.547 98.5791 330.408 98.8599 330.408 99.2065C330.408 99.5337 330.537 99.7803 330.796 99.9463C331.055 100.112 331.521 100.271 332.195 100.422C332.874 100.574 333.423 100.754 333.843 100.964C334.263 101.174 334.573 101.428 334.773 101.726C334.978 102.019 335.081 102.378 335.081 102.803C335.081 103.511 334.797 104.08 334.231 104.509C333.665 104.934 332.93 105.146 332.026 105.146C331.392 105.146 330.83 105.034 330.342 104.81C329.854 104.585 329.47 104.272 329.192 103.872C328.918 103.467 328.782 103.03 328.782 102.561H330.137C330.161 103.015 330.342 103.376 330.679 103.645C331.021 103.909 331.47 104.041 332.026 104.041C332.539 104.041 332.949 103.938 333.257 103.733C333.569 103.523 333.726 103.245 333.726 102.898ZM340.237 100.972C340.237 99.7559 340.525 98.7793 341.101 98.042C341.677 97.2998 342.432 96.9287 343.364 96.9287C344.292 96.9287 345.027 97.2461 345.569 97.8809V93.75H346.924V105H345.679L345.613 104.15C345.071 104.814 344.316 105.146 343.35 105.146C342.432 105.146 341.682 104.771 341.101 104.019C340.525 103.267 340.237 102.285 340.237 101.074V100.972ZM341.592 101.125C341.592 102.024 341.777 102.727 342.148 103.235C342.52 103.743 343.032 103.997 343.687 103.997C344.546 103.997 345.173 103.611 345.569 102.839V99.1992C345.164 98.4521 344.541 98.0786 343.701 98.0786C343.037 98.0786 342.52 98.335 342.148 98.8477C341.777 99.3604 341.592 100.12 341.592 101.125ZM352.322 105.146C351.248 105.146 350.374 104.795 349.7 104.092C349.026 103.384 348.689 102.439 348.689 101.257V101.008C348.689 100.222 348.838 99.5215 349.136 98.9062C349.438 98.2861 349.858 97.8027 350.396 97.4561C350.938 97.1045 351.523 96.9287 352.153 96.9287C353.184 96.9287 353.984 97.2681 354.556 97.9468C355.127 98.6255 355.413 99.5972 355.413 100.862V101.426H350.044C350.063 102.207 350.291 102.839 350.725 103.323C351.165 103.801 351.721 104.041 352.395 104.041C352.874 104.041 353.279 103.943 353.611 103.748C353.943 103.552 354.233 103.293 354.482 102.971L355.31 103.616C354.646 104.636 353.65 105.146 352.322 105.146ZM352.153 98.042C351.606 98.042 351.147 98.2422 350.776 98.6426C350.405 99.0381 350.176 99.5947 350.088 100.312H354.058V100.21C354.019 99.5215 353.833 98.9893 353.501 98.6133C353.169 98.2324 352.72 98.042 352.153 98.042ZM358.459 105H357.104V93.75H358.459V105ZM366.384 94.3359L369.871 103.037L373.357 94.3359H375.181V105H373.774V100.847L373.906 96.3647L370.405 105H369.329L365.835 96.3867L365.974 100.847V105H364.568V94.3359H366.384ZM382.344 104.216C381.816 104.836 381.042 105.146 380.022 105.146C379.177 105.146 378.533 104.902 378.088 104.414C377.649 103.921 377.427 103.193 377.422 102.231V97.0752H378.777V102.195C378.777 103.396 379.265 103.997 380.242 103.997C381.277 103.997 381.965 103.611 382.307 102.839V97.0752H383.662V105H382.373L382.344 104.216ZM387.009 97.0752L387.053 98.0713C387.659 97.3096 388.45 96.9287 389.426 96.9287C391.101 96.9287 391.946 97.8735 391.96 99.7632V105H390.605V99.7559C390.601 99.1846 390.469 98.7622 390.21 98.4888C389.956 98.2153 389.558 98.0786 389.016 98.0786C388.577 98.0786 388.191 98.1958 387.859 98.4302C387.527 98.6646 387.268 98.9722 387.083 99.353V105H385.728V97.0752H387.009ZM393.674 100.972C393.674 99.7559 393.962 98.7793 394.539 98.042C395.115 97.2998 395.869 96.9287 396.802 96.9287C397.729 96.9287 398.464 97.2461 399.006 97.8809V93.75H400.361V105H399.116L399.05 104.15C398.508 104.814 397.754 105.146 396.787 105.146C395.869 105.146 395.12 104.771 394.539 104.019C393.962 103.267 393.674 102.285 393.674 101.074V100.972ZM395.029 101.125C395.029 102.024 395.215 102.727 395.586 103.235C395.957 103.743 396.47 103.997 397.124 103.997C397.983 103.997 398.611 103.611 399.006 102.839V99.1992C398.601 98.4521 397.979 98.0786 397.139 98.0786C396.475 98.0786 395.957 98.335 395.586 98.8477C395.215 99.3604 395.029 100.12 395.029 101.125ZM402.112 100.964C402.112 100.188 402.263 99.4897 402.566 98.8696C402.874 98.2495 403.298 97.771 403.84 97.4341C404.387 97.0972 405.01 96.9287 405.708 96.9287C406.787 96.9287 407.659 97.3022 408.323 98.0493C408.992 98.7964 409.326 99.79 409.326 101.03V101.125C409.326 101.897 409.177 102.59 408.879 103.206C408.586 103.816 408.164 104.292 407.612 104.634C407.065 104.976 406.436 105.146 405.723 105.146C404.648 105.146 403.777 104.773 403.108 104.026C402.444 103.279 402.112 102.29 402.112 101.06V100.964ZM403.474 101.125C403.474 102.004 403.677 102.71 404.082 103.242C404.492 103.774 405.039 104.041 405.723 104.041C406.411 104.041 406.958 103.772 407.363 103.235C407.769 102.693 407.971 101.936 407.971 100.964C407.971 100.095 407.764 99.3921 407.349 98.855C406.938 98.313 406.392 98.042 405.708 98.042C405.039 98.042 404.5 98.3081 404.089 98.8403C403.679 99.3726 403.474 100.134 403.474 101.125Z" fill="white"/>
</svg>
